<svg width="86" height="86" viewBox="0 0 86 86" fill="none" xmlns="http://www.w3.org/2000/svg">
<g clip-path="url(#clip0_513_4039)">
<path d="M5.20264 68.4808V47.2215C5.20264 33.2729 16.5087 21.9668 30.4573 21.9668H55.5564C69.505 21.9668 80.8111 33.2729 80.8111 47.2215V68.4808H5.20264Z" fill="#CBE3FA"/>
<path d="M56.1394 21.9733C62.1632 22.1097 62.1102 31.1308 56.0864 31.2652C51.6941 31.3632 46.4135 31.3532 39.7231 31.2325C25.7767 30.9811 14.4684 42.5386 14.4684 56.4872V68.4808H5.20264V47.2215C5.20264 33.2738 16.5096 21.9668 30.4573 21.9668C30.4573 21.9668 55.9456 21.969 56.1394 21.9733Z" fill="#EEF7FF"/>
<path d="M81.5522 68.4809H72.8424V60.6977C72.8424 58.2423 70.8503 56.2501 68.3949 56.2501H17.6186C15.1632 56.2501 13.171 58.2423 13.171 60.6977V68.4809H4.46123C2.00581 68.4809 0.0136719 70.473 0.0136719 72.9285V76.8201C0.0136719 79.2755 2.00581 81.2676 4.46123 81.2676H81.5522C84.0076 81.2676 85.9998 79.2755 85.9998 76.8201V72.9285C85.9998 70.473 84.0076 68.4809 81.5522 68.4809Z" fill="#42434D"/>
<path d="M62.6505 47.1696V56.2501H23.3638V47.1696C23.3638 42.257 27.3462 38.2745 32.2589 38.2745H53.7554C58.6681 38.2745 62.6505 42.257 62.6505 47.1696Z" fill="#B32425"/>
<path d="M22.6212 13.4427C21.9709 13.4427 21.3742 13.0114 21.193 12.3539L20.4517 9.66686C20.234 8.87761 20.6973 8.0613 21.4867 7.84355C22.275 7.62618 23.0923 8.08909 23.31 8.87853L24.0513 11.5656C24.3113 12.5079 23.6019 13.4427 22.6212 13.4427Z" fill="#B5D5F5"/>
<path d="M63.3923 13.4427C62.4107 13.4427 61.7026 12.5072 61.9623 11.5656L62.7035 8.87855C62.9213 8.08893 63.7381 7.62583 64.5268 7.84357C65.3163 8.06132 65.7796 8.87763 65.5618 9.66688L64.8205 12.3539C64.6393 13.0113 64.0426 13.4427 63.3923 13.4427Z" fill="#B5D5F5"/>
<path d="M5.94225 22.3356C5.12649 22.3356 4.91023 21.9178 3.07042 20.0779C2.4915 19.4988 2.4915 18.5604 3.07042 17.9813C3.64953 17.4026 4.58797 17.4026 5.16708 17.9813L6.99057 19.8048C7.92734 20.7417 7.25113 22.3356 5.94225 22.3356Z" fill="#B5D5F5"/>
<path d="M80.0716 22.3355C78.7624 22.3355 78.0867 20.7415 79.0233 19.8047L81.049 17.779C81.6281 17.2003 82.5665 17.2003 83.1457 17.779C83.7246 18.3581 83.7246 19.2966 83.1457 19.8757C81.0648 21.9568 80.8835 22.3355 80.0716 22.3355Z" fill="#B5D5F5"/>
<path d="M42.8214 10.4773C42.0027 10.4773 41.3389 9.81351 41.3389 8.99479V6.21506C41.3389 5.39634 42.0027 4.73254 42.8214 4.73254C43.6401 4.73254 44.3039 5.39634 44.3039 6.21506V8.99479C44.3039 9.81351 43.6401 10.4773 42.8214 10.4773Z" fill="#B5D5F5"/>
<path d="M81.6802 68.4846C81.5484 68.4776 20.1825 68.4809 20.2133 68.4809C19.3945 68.4809 18.7307 67.8171 18.7307 66.9984V66.2571C18.7307 63.8008 20.722 61.8096 23.1783 61.8096H68.472C72.1062 61.8096 72.2882 56.2501 68.3951 56.2501H17.6189C15.1625 56.2501 13.1713 58.2413 13.1713 60.6977V68.4809H4.4615C2.00515 68.4809 0.0139424 70.4721 0.0139424 72.9285C0.0139424 76.7552 -0.116519 77.3781 0.420709 78.6365C1.40955 80.953 4.80878 80.2226 4.83231 77.7042C4.85511 75.2675 6.83761 73.2991 9.27969 73.2991H81.5221C84.6313 73.2991 84.7851 68.6497 81.6802 68.4846Z" fill="#585966"/>
<path d="M54.0871 38.2805C58.8909 38.4568 58.6963 45.685 53.8894 45.6913C50.6771 45.6955 46.1386 45.6924 39.6715 45.687C34.7588 45.6829 30.7764 49.6694 30.7764 54.5821V56.25H23.3638V47.1695C23.3638 42.2568 27.3462 38.2744 32.2589 38.2744C32.2587 38.2746 53.977 38.2766 54.0871 38.2805Z" fill="#F15D5E"/>
</g>
<defs>
<clipPath id="clip0_513_4039">
<rect width="86" height="86" fill="white"/>
</clipPath>
</defs>
</svg>
