<svg width="24" height="24" viewBox="0 0 24 24" fill="none" xmlns="http://www.w3.org/2000/svg">
<path d="M14.8906 6.0303C15.2621 5.61639 15.5453 5.13562 15.724 4.61559C15.9028 4.09557 15.9735 3.54653 15.9321 3C14.7917 3.089 13.7331 3.60754 12.9844 4.4439C12.6259 4.84475 12.3542 5.31108 12.1854 5.81527C12.0166 6.31947 11.9542 6.85128 12.0018 7.37921C12.5581 7.38369 13.108 7.26436 13.6089 7.03045C14.1099 6.79654 14.5484 6.45433 14.8906 6.0303ZM17.3667 13.0978C17.3733 12.3699 17.5716 11.6557 17.9429 11.0224C18.3143 10.3892 18.8464 9.85784 19.4891 9.47857C19.0835 8.91358 18.5473 8.44773 17.9231 8.11795C17.2988 7.78817 16.6037 7.60354 15.8928 7.5787C14.36 7.42671 12.9451 8.44314 12.1296 8.44314C11.314 8.44314 10.1644 7.59769 8.88705 7.61669C8.05199 7.64329 7.23831 7.87867 6.52538 8.29987C5.81245 8.72108 5.2246 9.31374 4.81918 10.02C3.08985 12.9268 4.37703 17.2491 6.10636 19.5954C6.89242 20.7448 7.875 22.0462 9.172 21.9987C10.469 21.9512 10.8915 21.2198 12.3949 21.2198C13.8982 21.2198 14.36 21.9987 15.6374 21.9702C16.9147 21.9417 17.8187 20.7923 18.644 19.6429C19.2287 18.8084 19.6854 17.8965 20 16.9356C19.2213 16.6145 18.5569 16.0799 18.0889 15.3979C17.6209 14.7159 17.3699 13.9163 17.3667 13.0978Z" fill="black"/>
</svg>
