<svg width="20" height="20" viewBox="0 0 20 20" fill="none" xmlns="http://www.w3.org/2000/svg">
<path d="M4.73454 17.5001V16.6667L5.98454 15.8334C5.16509 15.8334 4.47412 15.5522 3.91162 14.9897C3.34912 14.4272 3.06787 13.7362 3.06787 12.9167V5.00008C3.06787 3.8473 3.60259 3.00355 4.67204 2.46883C5.74148 1.93411 7.42898 1.66675 9.73454 1.66675C12.1234 1.66675 13.8318 1.92369 14.8595 2.43758C15.8873 2.95147 16.4012 3.80564 16.4012 5.00008V12.9167C16.4012 13.7362 16.12 14.4272 15.5575 14.9897C14.995 15.5522 14.304 15.8334 13.4845 15.8334L14.7345 16.6667V17.5001H4.73454ZM4.73454 8.33341H8.9012V5.83341H4.73454V8.33341ZM10.5679 8.33341H14.7345V5.83341H10.5679V8.33341ZM6.81787 13.3334C7.16509 13.3334 7.46023 13.2119 7.70329 12.9688C7.94634 12.7258 8.06787 12.4306 8.06787 12.0834C8.06787 11.7362 7.94634 11.4411 7.70329 11.198C7.46023 10.9549 7.16509 10.8334 6.81787 10.8334C6.47065 10.8334 6.17551 10.9549 5.93245 11.198C5.6894 11.4411 5.56787 11.7362 5.56787 12.0834C5.56787 12.4306 5.6894 12.7258 5.93245 12.9688C6.17551 13.2119 6.47065 13.3334 6.81787 13.3334ZM12.6512 13.3334C12.9984 13.3334 13.2936 13.2119 13.5366 12.9688C13.7797 12.7258 13.9012 12.4306 13.9012 12.0834C13.9012 11.7362 13.7797 11.4411 13.5366 11.198C13.2936 10.9549 12.9984 10.8334 12.6512 10.8334C12.304 10.8334 12.0088 10.9549 11.7658 11.198C11.5227 11.4411 11.4012 11.7362 11.4012 12.0834C11.4012 12.4306 11.5227 12.7258 11.7658 12.9688C12.0088 13.2119 12.304 13.3334 12.6512 13.3334Z" fill="#151515"/>
</svg>
