<svg width="19" height="25" viewBox="0 0 19 25" fill="none" xmlns="http://www.w3.org/2000/svg">
<path d="M9.50005 23L9.16429 23.3705L9.50005 23.6748L9.8358 23.3705L9.50005 23ZM9.50005 23C9.8358 23.3705 9.83591 23.3704 9.83605 23.3703L9.83648 23.3699L9.83794 23.3686L9.84316 23.3638L9.86261 23.346C9.87952 23.3305 9.90423 23.3077 9.93622 23.2779C10.0002 23.2183 10.0933 23.1308 10.2114 23.0174C10.4476 22.7908 10.7839 22.461 11.187 22.0456C11.9925 21.2156 13.0676 20.0411 14.1439 18.6645C15.2191 17.2893 16.3032 15.7029 17.1202 14.0489C17.9351 12.3991 18.5 10.6508 18.5 8.96056C18.5 4.25762 14.4392 0.5 9.50005 0.5C4.56087 0.5 0.5 4.25761 0.5 8.96056C0.5 10.6508 1.06489 12.3991 1.87984 14.0489C2.69684 15.7029 3.78089 17.2893 4.85613 18.6645C5.93248 20.0411 7.00755 21.2156 7.8131 22.0456C8.21616 22.461 8.55245 22.7908 8.78865 23.0174C8.90676 23.1308 8.99989 23.2183 9.06387 23.2779C9.09587 23.3077 9.12058 23.3305 9.13749 23.346L9.15693 23.3638L9.16215 23.3686L9.16361 23.3699L9.16405 23.3703C9.16419 23.3704 9.16429 23.3705 9.50005 23ZM5.28421 8.73463C5.28421 9.11248 5.54385 9.38159 5.85075 9.47437V11.2711V11.7711H6.16884V11.8846C6.16884 12.421 6.63213 12.7753 7.09925 12.7753H7.68601C8.15314 12.7753 8.61647 12.4211 8.61647 11.8846V11.7711H10.3669V11.8846C10.3669 12.421 10.8302 12.7753 11.2973 12.7753H11.8841C12.3513 12.7753 12.8145 12.421 12.8145 11.8846V11.7711H13.1493V11.2711V9.47436C13.4562 9.38156 13.7158 9.11246 13.7158 8.73463V7.34008V7.33993C13.7157 6.96229 13.4562 6.69316 13.1493 6.60035V6.25491C13.1493 5.76513 12.9114 5.38373 12.5669 5.14243C12.2382 4.91226 11.8265 4.81535 11.433 4.81535H9.50041H9.49959H7.56695C7.17355 4.81535 6.76178 4.91226 6.43313 5.14244C6.08858 5.38375 5.85075 5.76514 5.85075 6.25491V6.60034C5.54383 6.69314 5.28421 6.9623 5.28421 7.34008V8.73463ZM9.50005 14.2695C6.31917 14.2695 3.79748 11.8622 3.79748 8.96056C3.79748 6.05894 6.31917 3.65162 9.50005 3.65162C12.6808 3.65162 15.2026 6.05891 15.2026 8.96052C15.2026 11.8621 12.6808 14.2695 9.50005 14.2695ZM8.63851 8.57198H7.38572V7.12603H8.63851V8.57198ZM10.3615 8.57198V7.12603H11.6143V8.57198H10.3615Z" fill="#B32425" stroke="white"/>
</svg>
