<svg width="64" height="63" viewBox="0 0 64 63" fill="none" xmlns="http://www.w3.org/2000/svg">
<path d="M46.7656 1.96875C38.615 1.96875 32 8.58375 32 16.7344C32 24.885 38.615 31.5 46.7656 31.5C54.9163 31.5 61.5312 24.885 61.5312 16.7344C61.5312 8.58375 54.9163 1.96875 46.7656 1.96875ZM55.0541 13.8206L46.5294 22.4437C46.1553 22.8178 45.6631 23.0344 45.1316 23.0344C44.6197 23.0344 44.1078 22.8178 43.7337 22.4634L38.4772 17.2266C37.7094 16.4587 37.7094 15.2184 38.4772 14.4506C39.245 13.6828 40.505 13.6828 41.2531 14.4506L45.1119 18.3094L52.2388 11.1037C53.0066 10.3359 54.2469 10.3162 55.0147 11.1037C55.7825 11.8716 55.8022 13.1119 55.0147 13.8797L55.0541 13.8206Z" fill="#B32425"/>
<path d="M29.4802 25.712C30.248 24.9442 30.248 23.7039 29.4802 22.9361L15.8959 9.35174C15.128 8.58393 13.8877 8.58393 13.1199 9.35174L9.57617 12.8955L25.9365 29.2558L29.4802 25.712Z" fill="#B32425"/>
<path d="M33.0233 44.5135C27.3139 41.0092 22.5102 36.2054 19.0058 30.496L20.5808 29.4723L8.63047 17.522L5.10641 21.046C2.29109 23.8613 1.68078 28.2517 3.53141 31.5788C9.24078 44.1789 19.3208 54.2589 31.783 59.8895C33.1414 60.6376 34.6377 61.0117 36.1142 61.0117C38.4373 61.0117 40.7408 60.106 42.4536 58.3932L45.9777 54.8692L34.0273 42.9188L33.0036 44.4938L33.0233 44.5135Z" fill="#B32425"/>
<path d="M40.5834 34.0397C39.8155 33.2719 38.5752 33.2719 37.8074 34.0397L34.2637 37.5835L50.624 53.9438L54.1677 50.4C54.9355 49.6322 54.9355 48.3919 54.1677 47.6241L40.5834 34.0397Z" fill="#B32425"/>
</svg>
