<svg width="20" height="20" viewBox="0 0 20 20" fill="none" xmlns="http://www.w3.org/2000/svg">
<path fill-rule="evenodd" clip-rule="evenodd" d="M3.90153 10.0001V14.1667H15.5682V10.0001H3.90153ZM6.87028 12.9688C6.62722 13.2119 6.33209 13.3334 5.98486 13.3334C5.63764 13.3334 5.3425 13.2119 5.09945 12.9688C4.85639 12.7258 4.73486 12.4306 4.73486 12.0834C4.73486 11.7362 4.85639 11.4411 5.09945 11.198C5.3425 10.9549 5.63764 10.8334 5.98486 10.8334C6.33209 10.8334 6.62722 10.9549 6.87028 11.198C7.11334 11.4411 7.23486 11.7362 7.23486 12.0834C7.23486 12.4306 7.11334 12.7258 6.87028 12.9688ZM14.3703 12.9688C14.1272 13.2119 13.8321 13.3334 13.4849 13.3334C13.1376 13.3334 12.8425 13.2119 12.5994 12.9688C12.3564 12.7258 12.2349 12.4306 12.2349 12.0834C12.2349 11.7362 12.3564 11.4411 12.5994 11.198C12.8425 10.9549 13.1376 10.8334 13.4849 10.8334C13.8321 10.8334 14.1272 10.9549 14.3703 11.198C14.6133 11.4411 14.7349 11.7362 14.7349 12.0834C14.7349 12.4306 14.6133 12.7258 14.3703 12.9688Z" fill="#B32425"/>
<path fill-rule="evenodd" clip-rule="evenodd" d="M4.73486 15.8334V16.6667C4.73486 16.9029 4.655 17.1008 4.49528 17.2605C4.33556 17.4202 4.13764 17.5001 3.90153 17.5001H3.0682C2.83209 17.5001 2.63417 17.4202 2.47445 17.2605C2.31472 17.1008 2.23486 16.9029 2.23486 16.6667V10.0001L3.98486 5.00008C4.0682 4.75008 4.2175 4.54869 4.43278 4.39591C4.64806 4.24314 4.88764 4.16675 5.15153 4.16675H14.3182C14.5821 4.16675 14.8217 4.24314 15.0369 4.39591C15.2522 4.54869 15.4015 4.75008 15.4849 5.00008L17.2349 10.0001V16.6667C17.2349 16.9029 17.155 17.1008 16.9953 17.2605C16.8356 17.4202 16.6376 17.5001 16.4015 17.5001H15.5682C15.3321 17.5001 15.1342 17.4202 14.9744 17.2605C14.8147 17.1008 14.7349 16.9029 14.7349 16.6667V15.8334H4.73486ZM4.5682 8.33341H14.9015L14.0265 5.83341H5.4432L4.5682 8.33341ZM3.90153 14.1667H15.5682V10.0001H3.90153V14.1667Z" fill="#B32425"/>
</svg>
