<svg width="21" height="20" viewBox="0 0 21 20" fill="none" xmlns="http://www.w3.org/2000/svg">
<g clip-path="url(#clip0_513_3090)">
<path fill-rule="evenodd" clip-rule="evenodd" d="M10.8257 7.36911V4.55055L9.01061 3.79935C8.84285 3.72997 8.65454 3.72997 8.48675 3.79935C7.70563 4.12279 5.38629 5.08265 4.42688 5.4798C4.17076 5.58572 4.00393 5.83542 4.00393 6.11254V7.1388C4.00393 7.41567 3.83706 7.66541 3.58098 7.7713C2.81174 8.08973 1.19223 8.76012 0.422985 9.07855C0.166868 9.18448 0 9.43418 0 9.7113V19.0615H4.06007V9.9786C4.06007 9.42461 4.39377 8.92517 4.90577 8.71335L8.96583 7.03291C9.30115 6.8939 9.67801 6.8939 10.0133 7.03291L10.8257 7.36911Z" fill="white"/>
<path fill-rule="evenodd" clip-rule="evenodd" d="M13.516 8.48247C13.5382 8.41446 13.5761 8.35214 13.6274 8.30078C13.713 8.21516 13.8292 8.16702 13.9502 8.16702H15.0408C15.162 8.16702 15.2782 8.2152 15.3638 8.30078C15.4494 8.38639 15.4973 8.50254 15.4973 8.62353V9.88353C15.4973 10.0045 15.4494 10.1207 15.3638 10.2063C15.2782 10.2919 15.162 10.34 15.0408 10.34H14.9194V19.0614H21.0002V3.3037C21.0002 3.02659 20.8334 2.77689 20.5773 2.67096C19.6179 2.27378 17.2985 1.31371 16.5174 0.990513C16.3497 0.921131 16.1613 0.921131 15.9936 0.990513C15.2122 1.31371 12.8931 2.27381 11.9335 2.67096C11.6776 2.77689 11.5107 3.02659 11.5107 3.3037V7.65232L13.516 8.48247ZM19.0173 8.62353C19.0173 8.50254 18.9692 8.38636 18.8836 8.30078C18.798 8.21516 18.6818 8.16702 18.5608 8.16702C18.2342 8.16702 17.7966 8.16702 17.47 8.16702C17.349 8.16702 17.2328 8.2152 17.1472 8.30078C17.0616 8.38639 17.0135 8.50254 17.0135 8.62353V9.88353C17.0135 10.0045 17.0616 10.1207 17.1472 10.2063C17.2328 10.2919 17.349 10.34 17.47 10.34H18.5608C18.6818 10.34 18.798 10.2919 18.8836 10.2063C18.9692 10.1207 19.0173 10.0045 19.0173 9.88353C19.0173 9.51332 19.0173 8.99378 19.0173 8.62353ZM15.4973 4.54816C15.4973 4.42717 15.4494 4.31098 15.3638 4.22541C15.2781 4.13983 15.162 4.09165 15.0408 4.09165C14.7143 4.09165 14.2768 4.09165 13.9501 4.09165C13.8291 4.09165 13.713 4.13983 13.6274 4.22541C13.5418 4.31098 13.4936 4.4272 13.4936 4.54816V5.80816C13.4936 5.92915 13.5418 6.04534 13.6274 6.13091C13.713 6.21649 13.8291 6.26467 13.9501 6.26467H15.0408C15.162 6.26467 15.2781 6.21649 15.3638 6.13091C15.4494 6.04534 15.4973 5.92912 15.4973 5.80816C15.4973 5.43771 15.4973 4.91841 15.4973 4.54816ZM19.0173 4.54816C19.0173 4.42717 18.9692 4.31098 18.8836 4.22541C18.798 4.13983 18.6818 4.09165 18.5608 4.09165C18.2342 4.09165 17.7966 4.09165 17.47 4.09165C17.349 4.09165 17.2328 4.13983 17.1472 4.22541C17.0616 4.31098 17.0135 4.4272 17.0135 4.54816V5.80816C17.0135 5.92915 17.0616 6.04534 17.1472 6.13091C17.2328 6.21649 17.349 6.26467 17.47 6.26467H18.5608C18.6818 6.26467 18.798 6.21649 18.8836 6.13091C18.9692 6.04534 19.0173 5.92912 19.0173 5.80816C19.0173 5.43771 19.0173 4.91841 19.0173 4.54816Z" fill="white"/>
<path fill-rule="evenodd" clip-rule="evenodd" d="M14.2341 9.97845C14.2341 9.70157 14.0673 9.45184 13.8112 9.34594C12.8518 8.94876 10.5324 7.9887 9.75131 7.6655C9.58355 7.59588 9.39524 7.59588 9.22744 7.6655C8.44612 7.9887 6.12699 8.9488 5.16737 9.34594C4.9115 9.45187 4.74463 9.70157 4.74463 9.97845V19.0614H14.2341V9.97845ZM8.7312 15.2985C8.7312 15.1775 8.68326 15.0613 8.59744 14.9758C8.51183 14.8901 8.39588 14.842 8.27469 14.842C7.94826 14.842 7.51069 14.842 7.18406 14.842C7.06307 14.842 6.94688 14.8902 6.8613 14.9758C6.77573 15.0613 6.72755 15.1776 6.72755 15.2985V16.5585C6.72755 16.6795 6.77573 16.7957 6.8613 16.8813C6.94688 16.9669 7.0631 17.015 7.18406 17.015H8.27469C8.39588 17.015 8.51186 16.9669 8.59744 16.8813C8.68326 16.7957 8.7312 16.6795 8.7312 16.5585C8.7312 16.1883 8.7312 15.6688 8.7312 15.2985ZM12.251 15.2985C12.251 15.1775 12.203 15.0613 12.1174 14.9758C12.0318 14.8902 11.9156 14.842 11.7944 14.842C11.468 14.842 11.0304 14.842 10.7038 14.842C10.5828 14.842 10.4666 14.8902 10.381 14.9758C10.2955 15.0613 10.2473 15.1776 10.2473 15.2985V16.5585C10.2473 16.6795 10.2955 16.7957 10.381 16.8813C10.4666 16.9669 10.5828 17.015 10.7038 17.015H11.7944C11.9156 17.015 12.0318 16.9669 12.1174 16.8813C12.203 16.7957 12.251 16.6795 12.251 16.5585C12.251 16.1883 12.251 15.6688 12.251 15.2985ZM8.7312 11.2231C8.7312 11.1019 8.68326 10.986 8.59744 10.9004C8.51183 10.8148 8.39588 10.7666 8.27469 10.7666C7.94826 10.7666 7.51069 10.7666 7.18406 10.7666C7.06307 10.7666 6.94688 10.8148 6.8613 10.9004C6.77573 10.986 6.72755 11.1019 6.72755 11.2231V12.4829C6.72755 12.6041 6.77573 12.7203 6.8613 12.8059C6.94688 12.8915 7.0631 12.9394 7.18406 12.9394H8.27469C8.39588 12.9394 8.51186 12.8915 8.59744 12.8059C8.68326 12.7203 8.7312 12.6041 8.7312 12.4829C8.7312 12.1127 8.7312 11.5934 8.7312 11.2231ZM12.251 11.2231C12.251 11.1019 12.203 10.986 12.1174 10.9004C12.0318 10.8148 11.9156 10.7666 11.7944 10.7666C11.468 10.7666 11.0304 10.7666 10.7038 10.7666C10.5828 10.7666 10.4666 10.8148 10.381 10.9004C10.2955 10.986 10.2473 11.1019 10.2473 11.2231V12.4829C10.2473 12.6041 10.2955 12.7203 10.381 12.8059C10.4666 12.8915 10.5828 12.9394 10.7038 12.9394H11.7944C11.9156 12.9394 12.0318 12.8915 12.1174 12.8059C12.203 12.7203 12.251 12.6041 12.251 12.4829C12.251 12.1127 12.251 11.5934 12.251 11.2231Z" fill="white"/>
</g>
<defs>
<clipPath id="clip0_513_3090">
<rect width="21" height="20" fill="white"/>
</clipPath>
</defs>
</svg>
