<svg width="16" height="16" viewBox="0 0 16 16" fill="none" xmlns="http://www.w3.org/2000/svg">
<g clip-path="url(#clip0_513_3080)">
<path d="M15.9999 7.41756C16.0021 7.30526 15.9803 7.26811 15.8586 7.27067C15.4474 7.27964 15.0362 7.27067 14.625 7.27665C14.5255 7.27665 14.4888 7.24718 14.4785 7.15196C14.4636 7.01276 14.4414 6.87355 14.414 6.73606C14.2144 5.72217 13.7773 4.77004 13.1386 3.95772C12.4999 3.14541 11.6778 2.49604 10.7396 2.06288C10.1513 1.78613 9.52273 1.60467 8.87744 1.52527C8.75916 1.51118 8.71731 1.47104 8.71945 1.34251C8.72756 0.895436 8.71945 0.445797 8.71945 0H7.28C7.22919 0.0563651 7.2373 0.128102 7.2373 0.193435C7.2373 0.547425 7.2373 0.901414 7.2373 1.2554C7.2373 1.45695 7.2373 1.46165 7.03362 1.49154C6.24372 1.60724 5.48197 1.86781 4.7867 2.26015C3.61713 2.91604 2.73706 3.84564 2.1243 5.03571C1.80005 5.6668 1.58507 6.34827 1.48849 7.05119C1.46287 7.23309 1.45177 7.23864 1.27029 7.23907C0.916298 7.23907 0.562309 7.23907 0.208319 7.23907C0.136581 7.23907 0.0610009 7.22669 -0.000488281 7.28177V8.71908C0.452567 8.71908 0.905196 8.72848 1.35783 8.72164C1.47397 8.72164 1.51155 8.75709 1.52222 8.86384C1.53546 8.99792 1.55724 9.132 1.58329 9.26437C1.78297 10.2782 2.22018 11.2303 2.85905 12.0425C3.49792 12.8547 4.32024 13.5038 5.25855 13.9367C5.84691 14.2132 6.47547 14.3946 7.12073 14.4739C7.24029 14.488 7.28086 14.5302 7.27744 14.6579C7.26676 15.0584 7.27744 15.4598 7.27018 15.8604C7.26719 15.9821 7.30477 16.0038 7.41707 16.0017C7.80736 15.9949 8.19764 15.9949 8.58793 16.0017C8.69511 16.0017 8.72799 15.9799 8.72585 15.8676C8.71859 15.4667 8.73055 15.0657 8.71902 14.6652C8.71518 14.5298 8.75873 14.488 8.88385 14.4726C9.72641 14.3679 10.5386 14.0918 11.2704 13.6613C12.4383 12.9907 13.3683 11.973 13.9311 10.7495C14.2103 10.162 14.3925 9.53312 14.4704 8.88732C14.4849 8.76221 14.5276 8.71866 14.663 8.7225C15.0635 8.73403 15.4645 8.7225 15.8654 8.72933C15.9777 8.72933 16.0012 8.69859 15.9995 8.59141C15.993 8.19913 15.9931 7.80785 15.9999 7.41756ZM8.01104 2.9122C10.8216 2.91561 13.0924 5.2048 13.0895 7.99957C13.0865 10.7943 10.7883 13.0976 7.99396 13.0895C5.18852 13.0814 2.88737 10.7803 2.90957 7.99018C2.93263 5.14033 5.20389 2.90835 8.01104 2.9122Z" fill="#1C1B1F"/>
<path d="M10.9056 8.00253C10.9048 8.57737 10.7336 9.13908 10.4136 9.61664C10.0937 10.0942 9.63926 10.4661 9.1079 10.6855C8.57654 10.9048 7.99208 10.9616 7.42842 10.8488C6.86476 10.736 6.34721 10.4585 5.94121 10.0516C5.53521 9.64463 5.259 9.12643 5.14749 8.5625C5.03599 7.99857 5.0942 7.41425 5.31477 6.8834C5.53534 6.35256 5.90835 5.89904 6.38666 5.58018C6.86496 5.26132 7.42708 5.09145 8.00192 5.09204C8.77289 5.09306 9.51189 5.40025 10.0564 5.94604C10.6009 6.49184 10.9064 7.23156 10.9056 8.00253Z" fill="#1C1B1F"/>
</g>
<defs>
<clipPath id="clip0_513_3080">
<rect width="16" height="16" fill="white"/>
</clipPath>
</defs>
</svg>
