<svg width="30" height="30" viewBox="0 0 30 30" fill="none" xmlns="http://www.w3.org/2000/svg">
<circle cx="14.9488" cy="14.9488" r="14.9488" fill="#B32425"/>
<path fill-rule="evenodd" clip-rule="evenodd" d="M10.9221 21.3221H19.2934C20.3744 21.3199 21.2467 20.4414 21.2467 19.3621V15.1547C21.2467 14.8472 20.9961 14.5966 20.6886 14.5966C20.3811 14.5966 20.1305 14.8472 20.1305 15.1547V19.3621C20.1327 19.8264 19.7577 20.2037 19.2934 20.2059H10.9221C10.4577 20.2037 10.0827 19.8264 10.0849 19.3621V11.0042C10.0827 10.5399 10.4577 10.1626 10.9221 10.1604H15.1077C15.4152 10.1604 15.6658 9.90978 15.6658 9.60228C15.6658 9.29477 15.4152 9.04419 15.1077 9.04419H10.9221C9.84048 9.04642 8.96875 9.92485 8.96875 11.0042V19.3621C8.96875 20.4414 9.84048 21.3199 10.9221 21.3221" fill="white"/>
<path fill-rule="evenodd" clip-rule="evenodd" d="M15.3004 14.2108L19.0804 10.422L19.8606 11.2066L16.0784 14.9977L15.0778 15.2182L15.3004 14.2108ZM20.2667 9.23602C20.4866 9.02451 20.8354 9.02451 21.0559 9.23602C21.2718 9.45591 21.2718 9.80471 21.0559 10.0252L20.6613 10.4197L19.8722 9.63059L20.2667 9.23602ZM14.2454 13.8118L13.8051 15.8281C13.766 16.0157 13.8224 16.2099 13.958 16.3427C14.0931 16.4739 14.2845 16.5302 14.4698 16.4934L16.4845 16.0531C16.5866 16.0291 16.6826 15.9766 16.7591 15.9001L21.8449 10.8143C22.499 10.1602 22.499 9.10097 21.8449 8.44689C21.1825 7.81458 20.14 7.81458 19.4775 8.44689L14.4 13.5372C14.3241 13.6137 14.2694 13.7069 14.2454 13.8118V13.8118Z" fill="white"/>
</svg>
