<svg width="25" height="24" viewBox="0 0 25 24" fill="none" xmlns="http://www.w3.org/2000/svg">
<path d="M5.93311 17C5.33976 17 4.75974 17.1759 4.2664 17.5056C3.77305 17.8352 3.38853 18.3038 3.16147 18.8519C2.93441 19.4001 2.875 20.0033 2.99075 20.5853C3.10651 21.1672 3.39223 21.7018 3.81179 22.1213C4.23134 22.5409 4.76589 22.8266 5.34784 22.9424C5.92978 23.0581 6.53298 22.9987 7.08116 22.7716C7.62934 22.5446 8.09787 22.1601 8.42752 21.6667C8.75716 21.1734 8.93311 20.5933 8.93311 20C8.93311 19.2044 8.61704 18.4413 8.05443 17.8787C7.49182 17.3161 6.72876 17 5.93311 17ZM6.93311 2L6.93311 14C6.93311 14.2652 6.82775 14.5196 6.64021 14.7071C6.45268 14.8946 6.19832 15 5.93311 15C5.66789 15 5.41354 14.8946 5.226 14.7071C5.03846 14.5196 4.93311 14.2652 4.93311 14L4.93311 2C4.93311 1.73478 5.03846 1.48043 5.226 1.29289C5.41354 1.10536 5.66789 1 5.93311 1C6.19832 1 6.45268 1.10536 6.64021 1.29289C6.82775 1.48043 6.93311 1.73478 6.93311 2ZM9.93311 8C9.93485 7.38106 10.128 6.7778 10.486 6.27293C10.8441 5.76807 11.3496 5.38631 11.9331 5.18V2C11.9331 1.73478 12.0385 1.48043 12.226 1.29289C12.4135 1.10536 12.6679 1 12.9331 1C13.1983 1 13.4527 1.10536 13.6402 1.29289C13.8277 1.48043 13.9331 1.73478 13.9331 2V5.18C14.452 5.36345 14.9104 5.6861 15.2582 6.11264C15.606 6.53918 15.8297 7.05317 15.9049 7.59836C15.9802 8.14355 15.904 8.69893 15.6847 9.20371C15.4654 9.70849 15.1115 10.1432 14.6617 10.4603C14.2119 10.7775 13.6835 10.9647 13.1344 11.0017C12.5853 11.0386 12.0366 10.9238 11.5484 10.6697C11.0602 10.4157 10.6512 10.0323 10.3663 9.5614C10.0814 9.09052 9.93156 8.55035 9.93311 8ZM11.9331 22L11.9331 14C11.9331 13.7348 12.0385 13.4804 12.226 13.2929C12.4135 13.1054 12.6679 13 12.9331 13C13.1983 13 13.4527 13.1054 13.6402 13.2929C13.8277 13.4804 13.9331 13.7348 13.9331 14L13.9331 22C13.9331 22.2652 13.8277 22.5196 13.6402 22.7071C13.4527 22.8946 13.1983 23 12.9331 23C12.6679 23 12.4135 22.8946 12.226 22.7071C12.0385 22.5196 11.9331 22.2652 11.9331 22ZM18.9331 10V2C18.9331 1.73478 19.0385 1.48043 19.226 1.29289C19.4135 1.10536 19.6679 1 19.9331 1C20.1983 1 20.4527 1.10536 20.6402 1.29289C20.8278 1.48043 20.9331 1.73478 20.9331 2V10C20.9331 10.2652 20.8278 10.5196 20.6402 10.7071C20.4527 10.8946 20.1983 11 19.9331 11C19.6679 11 19.4135 10.8946 19.226 10.7071C19.0385 10.5196 18.9331 10.2652 18.9331 10ZM18.9331 22V18.82C18.2659 18.5841 17.7036 18.1199 17.3455 17.5095C16.9874 16.8991 16.8566 16.1818 16.9763 15.4843C17.096 14.7868 17.4584 14.154 17.9994 13.6979C18.5405 13.2418 19.2254 12.9916 19.9331 12.9916C20.6408 12.9916 21.3257 13.2418 21.8668 13.6979C22.4078 14.154 22.7702 14.7868 22.8899 15.4843C23.0096 16.1818 22.8788 16.8991 22.5207 17.5095C22.1627 18.1199 21.6003 18.5841 20.9331 18.82V22C20.9331 22.2652 20.8278 22.5196 20.6402 22.7071C20.4527 22.8946 20.1983 23 19.9331 23C19.6679 23 19.4135 22.8946 19.226 22.7071C19.0385 22.5196 18.9331 22.2652 18.9331 22Z" fill="white"/>
</svg>
