<svg width="32" height="28" viewBox="0 0 32 28" fill="none" xmlns="http://www.w3.org/2000/svg">
<path fill-rule="evenodd" clip-rule="evenodd" d="M0 5C0 2.23858 2.23858 0 5 0H10.4861C11.4732 0 12.4383 0.29219 13.2596 0.839749L16.7404 3.16025C17.5617 3.70781 18.5268 4 19.5139 4H27C29.7614 4 32 6.23858 32 9V23C32 25.7614 29.7614 28 27 28H5C2.23858 28 0 25.7614 0 23V5ZM9 16C9 15.4477 9.44771 15 10 15H15V10C15 9.44771 15.4477 9 16 9C16.5523 9 17 9.44772 17 10V15H22C22.5523 15 23 15.4477 23 16C23 16.5523 22.5523 17 22 17H17V22C17 22.5523 16.5523 23 16 23C15.4477 23 15 22.5523 15 22V17H10C9.44771 17 9 16.5523 9 16Z" fill="#B32425" fill-opacity="0.1"/>
</svg>
