<svg width="27" height="24" viewBox="0 0 27 24" fill="none" xmlns="http://www.w3.org/2000/svg">
<path d="M6.81754 19.0907C5.07099 19.0907 3.51754 17.9726 2.95354 16.3078L2.91536 16.1824C2.78227 15.7416 2.72663 15.3707 2.72663 14.9998V7.56201L0.0800851 16.3962C-0.260279 17.6955 0.515358 19.0427 1.81681 19.4016L18.6855 23.9191C18.8961 23.9736 19.1066 23.9998 19.3139 23.9998C20.4004 23.9998 21.3932 23.2787 21.6714 22.2162L22.6543 19.0907H6.81754Z" fill="#B32425"/>
<path d="M9.81756 7.63659C11.0208 7.63659 11.9994 6.65804 11.9994 5.45477C11.9994 4.25149 11.0208 3.27295 9.81756 3.27295C8.61429 3.27295 7.63574 4.25149 7.63574 5.45477C7.63574 6.65804 8.61429 7.63659 9.81756 7.63659Z" fill="#B32425"/>
<path d="M23.4537 0H7.09007C5.58679 0 4.36279 1.224 4.36279 2.72727V14.7273C4.36279 16.2305 5.58679 17.4545 7.09007 17.4545H23.4537C24.957 17.4545 26.181 16.2305 26.181 14.7273V2.72727C26.181 1.224 24.957 0 23.4537 0ZM7.09007 2.18182H23.4537C23.7548 2.18182 23.9992 2.42618 23.9992 2.72727V10.4716L20.553 6.45055C20.1875 6.02182 19.6584 5.79273 19.0901 5.77964C18.525 5.78291 17.9948 6.03382 17.6326 6.468L13.581 11.3313L12.261 10.0145C11.5148 9.26836 10.3006 9.26836 9.55552 10.0145L6.54461 13.0244V2.72727C6.54461 2.42618 6.78897 2.18182 7.09007 2.18182Z" fill="#B32425"/>
</svg>
