
<svg width="22" height="22" viewBox="0 0 22 22" fill="none" xmlns="http://www.w3.org/2000/svg">
<mask id="mask0_513_3856" style="mask-type:luminance" maskUnits="userSpaceOnUse" x="0" y="5" width="5" height="11">
<path fill-rule="evenodd" clip-rule="evenodd" d="M0 5.85156H4.80174V15.9674H0V5.85156Z" fill="white"/>
</mask>
<g mask="url(#mask0_513_3856)">
<path fill-rule="evenodd" clip-rule="evenodd" d="M4.80175 13.0936L4.0476 15.9093L1.29103 15.9674C0.467314 14.4396 0 12.6913 0 10.8336C0 9.03728 0.436888 7.34309 1.21134 5.85156H1.21185L3.66594 6.30132L4.74106 8.74072C4.5161 9.39681 4.39342 10.1009 4.39342 10.8336C4.39342 11.6289 4.5376 12.3908 4.80175 13.0936" fill="#FBBB00"/>
</g>
<mask id="mask1_513_3856" style="mask-type:luminance" maskUnits="userSpaceOnUse" x="11" y="8" width="11" height="12">
<path fill-rule="evenodd" clip-rule="evenodd" d="M11.0715 8.80957H21.6666V19.2816H11.0715V8.80957Z" fill="white"/>
</mask>
<g mask="url(#mask1_513_3856)">
<path fill-rule="evenodd" clip-rule="evenodd" d="M21.4774 8.80957C21.6018 9.46482 21.6667 10.1417 21.6667 10.8334C21.6667 11.609 21.5852 12.3656 21.4298 13.0952C20.9024 15.5786 19.5245 17.747 17.6155 19.2816L17.6149 19.281L14.5239 19.1234L14.0863 16.3924C15.353 15.6495 16.3429 14.4869 16.8644 13.0952H11.0715V8.80957H21.4774Z" fill="#518EF8"/>
</g>
<path fill-rule="evenodd" clip-rule="evenodd" d="M17.6147 19.2812L17.6152 19.2817C15.7586 20.7741 13.4002 21.6669 10.8331 21.6669C6.70744 21.6669 3.1205 19.3609 1.29077 15.9675L4.80149 13.0938C5.71644 15.5353 8.07168 17.2735 10.8331 17.2735C12.02 17.2735 13.1319 16.9526 14.0861 16.3925L17.6147 19.2812Z" fill="#28B446"/>
<path fill-rule="evenodd" clip-rule="evenodd" d="M17.7482 2.49412L14.2388 5.36724C13.2513 4.74999 12.0839 4.39342 10.8334 4.39342C8.00955 4.39342 5.6101 6.21127 4.74115 8.74043L1.21193 5.85127H1.21143C3.01437 2.37491 6.64646 0 10.8334 0C13.4619 0 15.872 0.936279 17.7482 2.49412" fill="#F14336"/>
</svg>
