<svg width="24" height="24" viewBox="0 0 24 24" fill="none" xmlns="http://www.w3.org/2000/svg">
<path d="M5 17C4.40666 17 3.82664 17.1759 3.33329 17.5056C2.83994 17.8352 2.45543 18.3038 2.22836 18.8519C2.0013 19.4001 1.94189 20.0033 2.05765 20.5853C2.1734 21.1672 2.45912 21.7018 2.87868 22.1213C3.29824 22.5409 3.83279 22.8266 4.41473 22.9424C4.99667 23.0581 5.59987 22.9987 6.14805 22.7716C6.69623 22.5446 7.16477 22.1601 7.49441 21.6667C7.82405 21.1734 8 20.5933 8 20C8 19.2044 7.68393 18.4413 7.12132 17.8787C6.55871 17.3161 5.79565 17 5 17ZM6 2L6 14C6 14.2652 5.89464 14.5196 5.70711 14.7071C5.51957 14.8946 5.26522 15 5 15C4.73478 15 4.48043 14.8946 4.29289 14.7071C4.10536 14.5196 4 14.2652 4 14L4 2C4 1.73478 4.10536 1.48043 4.29289 1.29289C4.48043 1.10536 4.73478 1 5 1C5.26522 1 5.51957 1.10536 5.70711 1.29289C5.89464 1.48043 6 1.73478 6 2ZM9 8C9.00174 7.38106 9.19488 6.7778 9.55294 6.27293C9.911 5.76807 10.4165 5.38631 11 5.18V2C11 1.73478 11.1054 1.48043 11.2929 1.29289C11.4804 1.10536 11.7348 1 12 1C12.2652 1 12.5196 1.10536 12.7071 1.29289C12.8946 1.48043 13 1.73478 13 2V5.18C13.5189 5.36345 13.9773 5.68611 14.3251 6.11264C14.6729 6.53918 14.8966 7.05317 14.9718 7.59836C15.0471 8.14355 14.9709 8.69893 14.7516 9.20371C14.5323 9.70849 14.1784 10.1432 13.7286 10.4603C13.2788 10.7775 12.7504 10.9647 12.2013 11.0017C11.6522 11.0386 11.1035 10.9238 10.6153 10.6697C10.1271 10.4157 9.71812 10.0323 9.43323 9.5614C9.14833 9.09052 8.99846 8.55035 9 8ZM11 22L11 14C11 13.7348 11.1054 13.4804 11.2929 13.2929C11.4804 13.1054 11.7348 13 12 13C12.2652 13 12.5196 13.1054 12.7071 13.2929C12.8946 13.4804 13 13.7348 13 14L13 22C13 22.2652 12.8946 22.5196 12.7071 22.7071C12.5196 22.8946 12.2652 23 12 23C11.7348 23 11.4804 22.8946 11.2929 22.7071C11.1054 22.5196 11 22.2652 11 22ZM18 10V2C18 1.73478 18.1054 1.48043 18.2929 1.29289C18.4804 1.10536 18.7348 1 19 1C19.2652 1 19.5196 1.10536 19.7071 1.29289C19.8946 1.48043 20 1.73478 20 2V10C20 10.2652 19.8946 10.5196 19.7071 10.7071C19.5196 10.8946 19.2652 11 19 11C18.7348 11 18.4804 10.8946 18.2929 10.7071C18.1054 10.5196 18 10.2652 18 10ZM18 22V18.82C17.3328 18.5841 16.7704 18.1199 16.4124 17.5095C16.0543 16.8991 15.9235 16.1818 16.0432 15.4843C16.1629 14.7868 16.5253 14.154 17.0663 13.6979C17.6074 13.2418 18.2923 12.9916 19 12.9916C19.7077 12.9916 20.3926 13.2418 20.9337 13.6979C21.4747 14.154 21.8371 14.7868 21.9568 15.4843C22.0765 16.1818 21.9457 16.8991 21.5876 17.5095C21.2296 18.1199 20.6672 18.5841 20 18.82V22C20 22.2652 19.8946 22.5196 19.7071 22.7071C19.5196 22.8946 19.2652 23 19 23C18.7348 23 18.4804 22.8946 18.2929 22.7071C18.1054 22.5196 18 22.2652 18 22Z" fill="white"/>
</svg>
