<svg width="23" height="24" viewBox="0 0 23 24" fill="none" xmlns="http://www.w3.org/2000/svg">
<path d="M20.1898 6.19868L15.1138 1.5667C12.8296 -0.522233 9.3779 -0.522233 7.0937 1.5667L2.01771 6.19868C0.736019 7.3664 0 9.04014 0 10.8047V19.0566C0 21.7813 2.13192 24 4.75874 24H17.4487C20.0756 24 22.2075 21.7813 22.2075 19.0566V10.8047C22.2075 9.05312 21.4715 7.3664 20.1898 6.19868ZM13.959 22.0408H8.24849V17.824C8.24849 16.2152 9.53018 14.9047 11.1037 14.9047C12.6773 14.9047 13.959 16.2152 13.959 17.824V22.0408ZM20.304 19.0437C20.304 20.6914 19.0223 22.0408 17.4487 22.0408H15.8625V17.824C15.8625 15.1383 13.7306 12.9585 11.1037 12.9585C8.47691 12.9585 6.34499 15.1383 6.34499 17.824V22.0408H4.75874C3.18519 22.0408 1.9035 20.7044 1.9035 19.0437V10.7917C1.9035 9.58508 2.4111 8.4433 3.28671 7.63887L8.3627 3.00689C9.92357 1.57967 12.2839 1.57967 13.8448 3.00689L18.9208 7.63887C19.7964 8.4433 20.304 9.58508 20.304 10.7917V19.0437Z" fill="#B32425"/>
</svg>
