<svg width="70" height="70" viewBox="0 0 70 70" fill="none" xmlns="http://www.w3.org/2000/svg">
<path d="M35 69.9991C15.6701 69.9991 0 54.3299 0 35C0 15.6701 15.6701 0 35 0C54.3299 0 69.9991 15.6701 69.9991 35C69.9991 54.3299 54.3299 69.9991 35 69.9991Z" fill="url(#paint0_linear_252_6666)"/>
<path d="M34.9999 67.4041C17.1035 67.4041 2.59717 52.8964 2.59717 35.0014C2.59717 17.1049 17.1049 2.59863 34.9999 2.59863C52.8959 2.59863 67.4026 17.1063 67.4026 35.0014C67.404 52.8964 52.8959 67.4041 34.9999 67.4041Z" fill="url(#paint1_linear_252_6666)"/>
<path d="M34.9999 64.7445C18.5724 64.7445 5.25562 51.4277 5.25562 35.0002C5.25562 18.5727 18.5724 5.25586 34.9999 5.25586C51.427 5.25586 64.7443 18.5727 64.7443 35.0002C64.7443 51.4277 51.427 64.7445 34.9999 64.7445Z" fill="#9B1111"/>
<path style="mix-blend-mode:color-dodge" d="M34.9999 64.7445C18.5724 64.7445 5.25562 51.4272 5.25562 35.0002C5.25562 18.5727 18.5724 5.25586 34.9999 5.25586C51.427 5.25586 64.7443 18.5727 64.7443 35.0002C64.7443 51.4272 51.427 64.7445 34.9999 64.7445Z" fill="url(#paint2_radial_252_6666)"/>
<path style="mix-blend-mode:color-burn" d="M34.9999 64.7445C18.5724 64.7445 5.25562 51.4277 5.25562 35.0002C5.25562 18.5727 18.5724 5.25586 34.9999 5.25586C51.427 5.25586 64.7443 18.5727 64.7443 35.0002C64.7443 51.4277 51.427 64.7445 34.9999 64.7445Z" fill="url(#paint3_radial_252_6666)"/>
<path style="mix-blend-mode:screen" d="M63.0309 35.1907C63.0309 35.1264 63.0405 35.0644 63.0405 35C63.0405 27.2564 59.9037 20.2464 54.8277 15.1723C49.7518 10.0982 42.744 6.95947 35 6.95947C27.2564 6.95947 20.2487 10.0959 15.1723 15.1723C10.0959 20.2487 6.95947 27.2551 6.95947 35C6.95947 35.0644 6.96867 35.1264 6.96912 35.1907H63.0309Z" fill="url(#paint4_linear_252_6666)"/>
<defs>
<linearGradient id="paint0_linear_252_6666" x1="66.0699" y1="3.93015" x2="7.0615" y2="62.9385" gradientUnits="userSpaceOnUse">
<stop stop-color="white"/>
<stop offset="0.03" stop-color="#EBEBEB"/>
<stop offset="0.04" stop-color="#DEDEDE"/>
<stop offset="0.08" stop-color="#A5A5A5"/>
<stop offset="0.11" stop-color="#828282"/>
<stop offset="0.13" stop-color="#757575"/>
<stop offset="0.16" stop-color="#858585"/>
<stop offset="0.24" stop-color="#AFAFAF"/>
<stop offset="0.32" stop-color="#EBEBEB"/>
<stop offset="0.36" stop-color="#F2F2F2"/>
<stop offset="0.44" stop-color="white"/>
<stop offset="0.69" stop-color="#E6E6E6"/>
<stop offset="0.74" stop-color="#B6B6B6"/>
<stop offset="0.79" stop-color="#949494"/>
<stop offset="0.82" stop-color="#7F7F7F"/>
<stop offset="0.85" stop-color="#777777"/>
<stop offset="0.87" stop-color="#7B7B7B"/>
<stop offset="0.89" stop-color="#868686"/>
<stop offset="0.91" stop-color="#999999"/>
<stop offset="0.93" stop-color="#B3B3B3"/>
<stop offset="0.95" stop-color="#D5D5D5"/>
<stop offset="0.96" stop-color="#EBEBEB"/>
<stop offset="0.97" stop-color="#F2F2F2"/>
<stop offset="1" stop-color="white"/>
</linearGradient>
<linearGradient id="paint1_linear_252_6666" x1="5.84434" y1="5.84442" x2="73.2549" y2="73.255" gradientUnits="userSpaceOnUse">
<stop stop-color="white"/>
<stop offset="0.03" stop-color="#EBEBEB"/>
<stop offset="0.04" stop-color="#DEDEDE"/>
<stop offset="0.08" stop-color="#A5A5A5"/>
<stop offset="0.11" stop-color="#828282"/>
<stop offset="0.13" stop-color="#757575"/>
<stop offset="0.16" stop-color="#858585"/>
<stop offset="0.24" stop-color="#AFAFAF"/>
<stop offset="0.32" stop-color="#EBEBEB"/>
<stop offset="0.36" stop-color="#F2F2F2"/>
<stop offset="0.44" stop-color="white"/>
<stop offset="0.69" stop-color="#E6E6E6"/>
<stop offset="0.74" stop-color="#B6B6B6"/>
<stop offset="0.79" stop-color="#949494"/>
<stop offset="0.82" stop-color="#7F7F7F"/>
<stop offset="0.85" stop-color="#777777"/>
<stop offset="0.87" stop-color="#7B7B7B"/>
<stop offset="0.89" stop-color="#868686"/>
<stop offset="0.91" stop-color="#999999"/>
<stop offset="0.93" stop-color="#B3B3B3"/>
<stop offset="0.95" stop-color="#D5D5D5"/>
<stop offset="0.96" stop-color="#EBEBEB"/>
<stop offset="0.97" stop-color="#F2F2F2"/>
<stop offset="1" stop-color="white"/>
</linearGradient>
<radialGradient id="paint2_radial_252_6666" cx="0" cy="0" r="1" gradientUnits="userSpaceOnUse" gradientTransform="translate(34.9999 84.1053) scale(47.8338)">
<stop stop-color="#C7C7C7"/>
<stop offset="0.13" stop-color="#9A9A9A"/>
<stop offset="0.28" stop-color="#6B6B6B"/>
<stop offset="0.43" stop-color="#454545"/>
<stop offset="0.58" stop-color="#272727"/>
<stop offset="0.73" stop-color="#111111"/>
<stop offset="0.87" stop-color="#040404"/>
<stop offset="1"/>
</radialGradient>
<radialGradient id="paint3_radial_252_6666" cx="0" cy="0" r="1" gradientUnits="userSpaceOnUse" gradientTransform="translate(34.9999 35.0002) scale(37.8032)">
<stop offset="0.57" stop-color="white"/>
<stop offset="0.6" stop-color="#F8F8F8"/>
<stop offset="0.64" stop-color="#E6E6E6"/>
<stop offset="0.68" stop-color="#C8C8C8"/>
<stop offset="0.73" stop-color="#9E9E9E"/>
<stop offset="0.78" stop-color="#696969"/>
<stop offset="0.81" stop-color="#454545"/>
</radialGradient>
<linearGradient id="paint4_linear_252_6666" x1="35" y1="6.47136" x2="35" y2="69.2508" gradientUnits="userSpaceOnUse">
<stop stop-color="#C7C7C7"/>
<stop offset="0.06" stop-color="#9A9A9A"/>
<stop offset="0.13" stop-color="#6B6B6B"/>
<stop offset="0.2" stop-color="#454545"/>
<stop offset="0.28" stop-color="#272727"/>
<stop offset="0.34" stop-color="#111111"/>
<stop offset="0.41" stop-color="#040404"/>
<stop offset="0.47"/>
</linearGradient>
</defs>
</svg>
