<svg width="20" height="22" viewBox="0 0 20 22" fill="none" xmlns="http://www.w3.org/2000/svg">
<path d="M4.46057 0L2.67634 1.83333L4.46057 3.66667L6.24479 1.83333L4.46057 0ZM6.24479 1.83333L8.02902 3.66667L9.81324 1.83333L8.02902 0L6.24479 1.83333ZM9.81324 1.83333L11.5975 3.66667L13.3817 1.83333L11.5975 0L9.81324 1.83333ZM13.3817 1.83333L15.1659 3.66667L16.9501 1.83333L15.1659 0L13.3817 1.83333ZM15.1659 3.66667H0V22H19.6265V3.66667H15.1659ZM1.78423 5.5H17.8423V20.1667H12.4896V15.5833H7.1369V20.1667H1.78423V5.5ZM3.56845 7.33333V9.16667H5.35268V7.33333H3.56845ZM7.1369 7.33333V9.16667H8.92113V7.33333H7.1369ZM10.7054 7.33333V9.16667H12.4896V7.33333H10.7054ZM14.2738 7.33333V9.16667H16.058V7.33333H14.2738ZM3.56845 10.0833V11.9167H5.35268V10.0833H3.56845ZM7.1369 10.0833V11.9167H8.92113V10.0833H7.1369ZM10.7054 10.0833V11.9167H12.4896V10.0833H10.7054ZM14.2738 10.0833V11.9167H16.058V10.0833H14.2738ZM3.56845 12.8333V14.6667H5.35268V12.8333H3.56845ZM7.1369 12.8333V14.6667H8.92113V12.8333H7.1369ZM10.7054 12.8333V14.6667H12.4896V12.8333H10.7054ZM14.2738 12.8333V14.6667H16.058V12.8333H14.2738ZM3.56845 15.5833V17.4167H5.35268V15.5833H3.56845ZM14.2738 15.5833V17.4167H16.058V15.5833H14.2738ZM8.92113 17.4167H10.7054V20.1667H8.92113V17.4167Z" fill="black"/>
</svg>
