<svg width="24" height="24" viewBox="0 0 24 24" fill="none" xmlns="http://www.w3.org/2000/svg">
<path d="M11.6667 4C9.89856 4 8.20286 4.67428 6.95262 5.87451C5.70238 7.07474 5 8.7026 5 10.4C5 14.7123 10.8541 19.5826 11.1236 19.8068L11.125 19.8079C11.2759 19.9319 11.468 20 11.6667 20C11.8653 20 12.0574 19.9319 12.2083 19.8079C12.5 19.5999 18.3333 14.72 18.3333 10.4C18.3333 8.7026 17.631 7.07474 16.3807 5.87451C15.1305 4.67428 13.4348 4 11.6667 4ZM11.6667 18.12C9.89167 16.52 6.66667 13.072 6.66667 10.4C6.66667 9.12694 7.19345 7.90605 8.13113 7.00588C9.06881 6.10571 10.3406 5.59999 11.6667 5.59999C12.9927 5.59999 14.2645 6.10571 15.2022 7.00588C16.1399 7.90605 16.6667 9.12694 16.6667 10.4C16.6667 13.072 13.4417 16.528 11.6667 18.12ZM11.6667 7.19999C11.0074 7.19999 10.3629 7.38767 9.81477 7.73928C9.2666 8.0909 8.83936 8.59067 8.58707 9.1754C8.33478 9.76012 8.26876 10.4035 8.39738 11.0243C8.526 11.645 8.84347 12.2152 9.30964 12.6627C9.77582 13.1102 10.3698 13.415 11.0164 13.5385C11.663 13.662 12.3332 13.5986 12.9423 13.3564C13.5514 13.1142 14.072 12.704 14.4382 12.1778C14.8045 11.6516 15 11.0329 15 10.4C15 9.55129 14.6488 8.73736 14.0237 8.13724C13.3986 7.53713 12.5507 7.19999 11.6667 7.19999ZM11.6667 12C11.337 12 11.0148 11.9061 10.7407 11.7303C10.4666 11.5545 10.253 11.3046 10.1269 11.0123C10.0007 10.7199 9.96772 10.3982 10.032 10.0878C10.0963 9.77747 10.2551 9.49238 10.4882 9.26861C10.7212 9.04485 11.0182 8.89246 11.3415 8.83073C11.6648 8.76899 11.9999 8.80068 12.3045 8.92178C12.609 9.04288 12.8693 9.24795 13.0524 9.51107C13.2356 9.77419 13.3333 10.0835 13.3333 10.4C13.3333 10.8243 13.1577 11.2313 12.8452 11.5313C12.5326 11.8314 12.1087 12 11.6667 12Z" fill="#64748B"/>
<path d="M11.6667 4C9.89856 4 8.20286 4.67428 6.95262 5.87451C5.70238 7.07474 5 8.7026 5 10.4C5 14.7123 10.8541 19.5826 11.1236 19.8068L11.125 19.8079C11.2759 19.9319 11.468 20 11.6667 20C11.8653 20 12.0574 19.9319 12.2083 19.8079C12.5 19.5999 18.3333 14.72 18.3333 10.4C18.3333 8.7026 17.631 7.07474 16.3807 5.87451C15.1305 4.67428 13.4348 4 11.6667 4ZM11.6667 18.12C9.89167 16.52 6.66667 13.072 6.66667 10.4C6.66667 9.12694 7.19345 7.90605 8.13113 7.00588C9.06881 6.10571 10.3406 5.59999 11.6667 5.59999C12.9927 5.59999 14.2645 6.10571 15.2022 7.00588C16.1399 7.90605 16.6667 9.12694 16.6667 10.4C16.6667 13.072 13.4417 16.528 11.6667 18.12ZM11.6667 7.19999C11.0074 7.19999 10.3629 7.38767 9.81477 7.73928C9.2666 8.0909 8.83936 8.59067 8.58707 9.1754C8.33478 9.76012 8.26876 10.4035 8.39738 11.0243C8.526 11.645 8.84347 12.2152 9.30964 12.6627C9.77582 13.1102 10.3698 13.415 11.0164 13.5385C11.663 13.662 12.3332 13.5986 12.9423 13.3564C13.5514 13.1142 14.072 12.704 14.4382 12.1778C14.8045 11.6516 15 11.0329 15 10.4C15 9.55129 14.6488 8.73736 14.0237 8.13724C13.3986 7.53713 12.5507 7.19999 11.6667 7.19999ZM11.6667 12C11.337 12 11.0148 11.9061 10.7407 11.7303C10.4666 11.5545 10.253 11.3046 10.1269 11.0123C10.0007 10.7199 9.96772 10.3982 10.032 10.0878C10.0963 9.77747 10.2551 9.49238 10.4882 9.26861C10.7212 9.04485 11.0182 8.89246 11.3415 8.83073C11.6648 8.76899 11.9999 8.80068 12.3045 8.92178C12.609 9.04288 12.8693 9.24795 13.0524 9.51107C13.2356 9.77419 13.3333 10.0835 13.3333 10.4C13.3333 10.8243 13.1577 11.2313 12.8452 11.5313C12.5326 11.8314 12.1087 12 11.6667 12Z" stroke="#64748B"/>
</svg>
