<svg width="24" height="24" viewBox="0 0 24 24" fill="none" xmlns="http://www.w3.org/2000/svg">
<g clip-path="url(#clip0_1488_3348)">
<path d="M23.9997 11.1263C24.0029 10.9579 23.9702 10.9022 23.7877 10.906C23.1708 10.9195 22.554 10.906 21.9372 10.915C21.788 10.915 21.7329 10.8708 21.7175 10.7279C21.6951 10.5191 21.6618 10.3103 21.6208 10.1041C21.3214 8.58326 20.6658 7.15506 19.7077 5.93658C18.7497 4.71811 17.5164 3.74406 16.1092 3.09432C15.2267 2.6792 14.2839 2.407 13.3159 2.28791C13.1385 2.26677 13.0757 2.20657 13.0789 2.01377C13.0911 1.34315 13.0789 0.668695 13.0789 0H10.9198C10.8435 0.0845476 10.8557 0.192154 10.8557 0.290152C10.8557 0.821137 10.8557 1.35212 10.8557 1.88311C10.8557 2.18543 10.8557 2.19247 10.5502 2.23731C9.36533 2.41086 8.22271 2.80172 7.17981 3.39023C5.42544 4.37406 4.10535 5.76845 3.18621 7.55356C2.69983 8.5002 2.37736 9.52241 2.23249 10.5768C2.19406 10.8496 2.17741 10.858 1.90519 10.8586C1.3742 10.8586 0.843219 10.8586 0.312234 10.8586C0.204628 10.8586 0.0912572 10.84 -0.000976562 10.9227V13.0786C0.678607 13.0786 1.35755 13.0927 2.03649 13.0825C2.21071 13.0825 2.26708 13.1356 2.28309 13.2958C2.30295 13.4969 2.33561 13.698 2.37468 13.8966C2.67422 15.4174 3.33003 16.8455 4.28833 18.0637C5.24663 19.282 6.48011 20.2558 7.88757 20.905C8.77012 21.3199 9.71296 21.5918 10.6808 21.7108C10.8602 21.7319 10.921 21.7954 10.9159 21.9869C10.8999 22.5877 10.9159 23.1898 10.905 23.7906C10.9005 23.9731 10.9569 24.0058 11.1254 24.0026C11.7108 23.9923 12.2962 23.9923 12.8816 24.0026C13.0424 24.0026 13.0917 23.9699 13.0885 23.8014C13.0776 23.2 13.0956 22.5986 13.0783 21.9978C13.0725 21.7947 13.1379 21.7319 13.3255 21.7089C14.5894 21.5519 15.8077 21.1378 16.9053 20.4919C18.6572 19.4861 20.0522 17.9595 20.8964 16.1243C21.3152 15.243 21.5884 14.2997 21.7053 13.331C21.7271 13.1433 21.7912 13.078 21.9942 13.0837C22.595 13.101 23.1965 13.0837 23.7979 13.094C23.9664 13.094 24.0016 13.0479 23.999 12.8871C23.9892 12.2987 23.9894 11.7118 23.9997 11.1263ZM12.0163 4.36829C16.2322 4.37342 19.6384 7.80721 19.6339 11.9994C19.6294 16.1915 16.1822 19.6464 11.9907 19.6343C7.78253 19.6221 4.33081 16.1704 4.36412 11.9853C4.3987 7.71049 7.80559 4.36253 12.0163 4.36829Z" fill="#9B1111"/>
<path d="M16.3581 12.0039C16.357 12.8662 16.1002 13.7087 15.6202 14.4251C15.1402 15.1414 14.4587 15.6993 13.6616 16.0283C12.8646 16.3573 11.9879 16.4426 11.1424 16.2733C10.2969 16.1041 9.52057 15.6879 8.91157 15.0775C8.30257 14.4671 7.88825 13.6898 7.721 12.8439C7.55374 11.998 7.64106 11.1215 7.97191 10.3252C8.30276 9.52896 8.86229 8.84868 9.57975 8.37039C10.2972 7.89211 11.1404 7.6373 12.0026 7.63819C13.1591 7.63971 14.2676 8.10049 15.0844 8.91919C15.9011 9.73789 16.3593 10.8475 16.3581 12.0039Z" fill="#9B1111"/>
</g>
<defs>
<clipPath id="clip0_1488_3348">
<rect width="24" height="24" fill="white"/>
</clipPath>
</defs>
</svg>
