<svg width="24" height="24" viewBox="0 0 24 24" fill="none" xmlns="http://www.w3.org/2000/svg">
<path fill-rule="evenodd" clip-rule="evenodd" d="M12 3C10.3431 3 9 4.34315 9 6V9H18C19.6569 9 21 10.3431 21 12V20C21 21.6569 19.6569 23 18 23H6C4.34315 23 3 21.6569 3 20V12C3 10.3431 4.34315 9 6 9H7V6C7 3.23858 9.23858 1 12 1C14.7614 1 17 3.23858 17 6C17 6.55228 16.5523 7 16 7C15.4477 7 15 6.55228 15 6C15 4.34315 13.6569 3 12 3ZM5 12C5 11.4477 5.44772 11 6 11H8H18C18.5523 11 19 11.4477 19 12V20C19 20.5523 18.5523 21 18 21H6C5.44772 21 5 20.5523 5 20V12ZM13 15C13 14.4477 12.5523 14 12 14C11.4477 14 11 14.4477 11 15V17C11 17.5523 11.4477 18 12 18C12.5523 18 13 17.5523 13 17V15Z" fill="#64748B"/>
</svg>
