<svg width="24" height="24" viewBox="0 0 24 24" fill="none" xmlns="http://www.w3.org/2000/svg">
<path d="M8 5C8 2.79086 9.79086 1 12 1C14.2091 1 16 2.79086 16 5V12C16 14.2091 14.2091 16 12 16C9.79086 16 8 14.2091 8 12V5Z" fill="#1C1B1F"/>
<path d="M6.25 11.8437V12C6.25 13.525 6.8558 14.9875 7.93414 16.0659C9.01247 17.1442 10.475 17.7499 12 17.7499C13.525 17.7499 14.9875 17.1442 16.0659 16.0659C17.1442 14.9875 17.75 13.525 17.75 12V11.8437C17.75 11.2914 18.1977 10.8438 18.75 10.8438H19.25C19.8023 10.8438 20.25 11.2915 20.25 11.8437V12C20.25 14.188 19.3808 16.2864 17.8336 17.8335C16.5842 19.083 14.9753 19.8903 13.25 20.1548V21.9999C13.25 22.5522 12.8023 22.9999 12.25 22.9999H11.75C11.1977 22.9999 10.75 22.5522 10.75 21.9999V20.1548C9.02471 19.8903 7.41579 19.083 6.16637 17.8335C4.61919 16.2864 3.75 14.188 3.75 12V11.8437C3.75 11.2914 4.19772 10.8438 4.75 10.8438H5.25C5.80228 10.8438 6.25 11.2914 6.25 11.8437Z" fill="#1C1B1F"/>
</svg>
