<svg width="21" height="25" viewBox="0 0 21 25" fill="none" xmlns="http://www.w3.org/2000/svg">
<path fill-rule="evenodd" clip-rule="evenodd" d="M2.31369 7.92082C2.31491 7.94674 2.31615 7.96858 2.31724 7.98612V12.172L0.292893 14.1963L0 14.4892V14.9034V18.3793V19.3793H1H5.79302V20.0138C5.79302 22.2229 7.58389 24.0138 9.79302 24.0138H10.7447C12.9539 24.0138 14.7447 22.2229 14.7447 20.0138V19.3793H19.5379H20.5379V18.3793V14.9034V14.4892L20.245 14.1963L18.2207 12.172V7.98614C18.2218 7.96859 18.223 7.94674 18.2242 7.92082C18.2273 7.85716 18.2302 7.7687 18.2309 7.65897C18.2322 7.4399 18.2243 7.13366 18.1888 6.76875C18.1184 6.04438 17.9363 5.05897 17.478 4.05921C17.0164 3.05209 16.2695 2.02108 15.0765 1.24725C13.8825 0.472774 12.3097 0 10.269 0C8.22826 0 6.65539 0.472774 5.46141 1.24725C4.26842 2.02108 3.52149 3.05209 3.0599 4.05921C2.60168 5.05897 2.41951 6.04438 2.34909 6.76875C2.31361 7.13366 2.30577 7.4399 2.30708 7.65897C2.30773 7.7687 2.31068 7.85716 2.31369 7.92082ZM12.7447 19.3793H7.79302V20.0138C7.79302 21.1184 8.68845 22.0138 9.79302 22.0138H10.7447C11.8493 22.0138 12.7447 21.1184 12.7447 20.0138V19.3793ZM14.7447 17.3793H18.5379V15.3177L16.5136 13.2933L16.2207 13.0004V12.5862V7.95172V7.91013L16.2239 7.87216L16.2239 7.87164V7.87155L16.2243 7.86606C16.2248 7.85888 16.2256 7.84555 16.2265 7.82648C16.2283 7.78832 16.2304 7.72742 16.2309 7.64707C16.2318 7.48596 16.2261 7.2491 16.1982 6.96228C16.1419 6.38321 15.9982 5.63068 15.6599 4.89252C15.3249 4.1617 14.8046 3.45478 13.9881 2.92517C13.1726 2.39619 11.9938 2 10.269 2C8.54416 2 7.3653 2.39619 6.54979 2.92517C5.73331 3.45478 5.21299 4.1617 4.87803 4.89252C4.5397 5.63068 4.396 6.38321 4.3397 6.96228C4.31182 7.2491 4.30608 7.48596 4.30704 7.64707C4.30752 7.72742 4.30966 7.78832 4.31146 7.82648C4.31236 7.84555 4.31317 7.85888 4.31365 7.86606L4.31403 7.8716L4.31403 7.87164L4.31724 7.91013V7.95172V12.5862V13.0004L4.02435 13.2933L2 15.3177V17.3793H5.79302H6.79302H13.7447H14.7447Z" fill="#3C3C3C"/>
</svg>
