<svg width="65" height="65" viewBox="0 0 65 65" fill="none" xmlns="http://www.w3.org/2000/svg">
<g clip-path="url(#clip0_513_4025)">
<path d="M50.2003 37C46.7003 37 43.8003 39.8 43.8003 43.3C43.8003 46.8 46.7003 49.6 50.2003 49.6C53.7003 49.6 56.6003 46.8 56.6003 43.3C56.6003 39.8 53.7003 37 50.2003 37ZM54.3003 41.3L48.8003 46.8C48.6003 47 48.4003 47.1 48.1003 47.1C47.8003 47.1 47.6003 47 47.4003 46.8L46.2003 45.6C45.8003 45.2 45.8003 44.6 46.2003 44.2C46.6003 43.8 47.2003 43.8 47.6003 44.2L48.1003 44.7L52.9003 39.9C53.3003 39.5 53.9003 39.5 54.3003 39.9C54.7003 40.3 54.6003 40.9 54.3003 41.3Z" fill="#B32425"/>
<path d="M64.5002 35C64.5002 34.6 64.3002 34.2 63.9002 34.1L50.6002 28.1C50.3002 28 50.0002 28 49.8002 28.1L36.5002 34.1C36.1002 34.3 35.9002 34.6 35.9002 35C36.4002 36.1 32.8002 51.7 49.6002 64.3C49.8002 64.5 50.0002 64.5 50.2002 64.5C50.6002 64.5 50.9002 64.2 51.0002 64.1C67.7002 51.8 64.0002 36.4 64.5002 35ZM50.2002 51.7C45.6002 51.7 41.8002 48 41.8002 43.4C41.8002 38.8 45.6002 35.1 50.2002 35.1C54.8002 35.1 58.6002 38.8 58.6002 43.4C58.6002 48 54.8002 51.7 50.2002 51.7Z" fill="#B32425"/>
<path d="M8.30008 39C4.10008 43.2 3.50008 49.7 6.60008 54.6L1.60008 58.7C0.100076 59.9 7.56979e-05 62.2 1.40008 63.5C2.70008 64.8 5.00008 64.8 6.20008 63.3L10.3001 58.3C12.4001 59.6 14.7001 60.3 17.0001 60.3C28.1001 60.3 33.7001 46.8 25.8001 39C21.1001 34.2 13.2001 34.2 8.30008 39ZM24.5001 55.2C17.9001 61.8 6.60008 57 6.60008 47.8C6.60008 38.5 17.9001 33.8 24.5001 40.4C28.6001 44.5 28.6001 51.1 24.5001 55.2Z" fill="#B32425"/>
<path d="M12.8003 40.6V51.2C12.8003 51.7 13.2003 52.2 13.8003 52.2H24.4003C29.0003 44.7 20.2003 36 12.8003 40.6Z" fill="#B32425"/>
<path d="M33.9002 35C33.9002 33.8 34.6002 32.7 35.7002 32.3L49.0002 26.3C49.4002 26.1 49.8002 26 50.2002 26H50.4002V3.4C50.4002 1.8 49.1002 0.5 47.5002 0.5H21.4002C21.1002 0.5 20.9002 0.6 20.7002 0.8L13.0002 8.4C12.8002 8.6 12.7002 8.8 12.7002 9.1V34C14.1002 33.6 15.6002 33.3 17.1002 33.3C25.1002 33.3 31.6002 39.8 31.6002 47.8C31.6002 49.3 31.4002 50.8 30.9002 52.2H36.9002C32.8002 43.8 34.1002 37.7 33.9002 35ZM28.2002 8.1H42.7002C43.2002 8.1 43.7002 8.6 43.7002 9.1C43.7002 9.7 43.2002 10.1 42.7002 10.1H28.2002C27.6002 10.1 27.2002 9.7 27.2002 9.1C27.2002 8.6 27.7002 8.1 28.2002 8.1ZM20.5002 14.6H42.8002C43.3002 14.6 43.8002 15 43.8002 15.6C43.8002 16.1 43.3002 16.6 42.8002 16.6H20.5002C19.9002 16.6 19.5002 16.1 19.5002 15.6C19.5002 15 19.9002 14.6 20.5002 14.6ZM27.9002 29.4H20.4002C19.8002 29.4 19.4002 29 19.4002 28.4C19.4002 27.9 19.8002 27.4 20.4002 27.4H27.9002C28.5002 27.4 28.9002 27.9 28.9002 28.4C28.9002 29 28.5002 29.4 27.9002 29.4ZM20.5002 23C19.9002 23 19.5002 22.6 19.5002 22C19.5002 21.5 19.9002 21 20.5002 21H38.0002C38.6002 21 39.0002 21.5 39.0002 22C39.0002 22.6 38.6002 23 38.0002 23H20.5002Z" fill="#B32425"/>
</g>
<defs>
<clipPath id="clip0_513_4025">
<rect width="65" height="65" fill="white"/>
</clipPath>
</defs>
</svg>
