<svg width="20" height="20" viewBox="0 0 20 20" fill="none" xmlns="http://www.w3.org/2000/svg">
<g clip-path="url(#clip0_513_3846)">
<path d="M12.6515 4.58333C12.1932 4.58333 11.8008 4.42014 11.4744 4.09375C11.1481 3.76736 10.9849 3.375 10.9849 2.91667C10.9849 2.45833 11.1481 2.06597 11.4744 1.73958C11.8008 1.41319 12.1932 1.25 12.6515 1.25C13.1099 1.25 13.5022 1.41319 13.8286 1.73958C14.155 2.06597 14.3182 2.45833 14.3182 2.91667C14.3182 3.375 14.155 3.76736 13.8286 4.09375C13.5022 4.42014 13.1099 4.58333 12.6515 4.58333ZM8.73486 8.75L10.5682 10.6667V15.8333H8.90153V11.6667L6.23486 9.33333C6.04042 9.16667 5.90847 8.99306 5.83903 8.8125C5.76959 8.63194 5.73486 8.41667 5.73486 8.16667C5.73486 7.91667 5.77306 7.70486 5.84945 7.53125C5.92584 7.35764 6.05431 7.18056 6.23486 7L8.5682 4.66667C8.74875 4.48611 8.93972 4.35764 9.14111 4.28125C9.3425 4.20486 9.5682 4.16667 9.8182 4.16667C10.0682 4.16667 10.2939 4.20486 10.4953 4.28125C10.6967 4.35764 10.8876 4.48611 11.0682 4.66667L12.6515 6.25C13.0265 6.625 13.464 6.92708 13.964 7.15625C14.464 7.38542 15.0265 7.5 15.6515 7.5V9.16667C14.7765 9.16667 13.9849 9.01042 13.2765 8.69792C12.5682 8.38542 11.9432 7.95833 11.4015 7.41667L10.7349 6.75L8.73486 8.75ZM3.90153 10C5.08209 10 6.07167 10.3993 6.87028 11.1979C7.66889 11.9965 8.0682 12.9861 8.0682 14.1667C8.0682 15.3472 7.66889 16.3368 6.87028 17.1354C6.07167 17.934 5.08209 18.3333 3.90153 18.3333C2.72097 18.3333 1.73139 17.934 0.93278 17.1354C0.134169 16.3368 -0.265137 15.3472 -0.265137 14.1667C-0.265137 12.9861 0.134169 11.9965 0.93278 11.1979C1.73139 10.3993 2.72097 10 3.90153 10ZM3.90153 17.0833C4.6932 17.0833 5.37722 16.7951 5.95361 16.2188C6.53 15.6424 6.8182 14.9583 6.8182 14.1667C6.8182 13.375 6.53 12.691 5.95361 12.1146C5.37722 11.5382 4.6932 11.25 3.90153 11.25C3.10986 11.25 2.42584 11.5382 1.84945 12.1146C1.27306 12.691 0.984863 13.375 0.984863 14.1667C0.984863 14.9583 1.27306 15.6424 1.84945 16.2188C2.42584 16.7951 3.10986 17.0833 3.90153 17.0833ZM15.5682 10C16.7488 10 17.7383 10.3993 18.5369 11.1979C19.3356 11.9965 19.7349 12.9861 19.7349 14.1667C19.7349 15.3472 19.3356 16.3368 18.5369 17.1354C17.7383 17.934 16.7488 18.3333 15.5682 18.3333C14.3876 18.3333 13.3981 17.934 12.5994 17.1354C11.8008 16.3368 11.4015 15.3472 11.4015 14.1667C11.4015 12.9861 11.8008 11.9965 12.5994 11.1979C13.3981 10.3993 14.3876 10 15.5682 10ZM15.5682 17.0833C16.3599 17.0833 17.0439 16.7951 17.6203 16.2188C18.1967 15.6424 18.4849 14.9583 18.4849 14.1667C18.4849 13.375 18.1967 12.691 17.6203 12.1146C17.0439 11.5382 16.3599 11.25 15.5682 11.25C14.7765 11.25 14.0925 11.5382 13.5161 12.1146C12.9397 12.691 12.6515 13.375 12.6515 14.1667C12.6515 14.9583 12.9397 15.6424 13.5161 16.2188C14.0925 16.7951 14.7765 17.0833 15.5682 17.0833Z" fill="#151515"/>
</g>
<defs>
<clipPath id="clip0_513_3846">
<rect width="20" height="20" fill="white"/>
</clipPath>
</defs>
</svg>
