<svg width="20" height="20" viewBox="0 0 20 20" fill="none" xmlns="http://www.w3.org/2000/svg">
<path d="M5.5682 19.1667L7.90153 7.41667L6.40153 8V10.8333H4.73486V6.91667L8.9432 5.125C9.13764 5.04167 9.3425 4.99306 9.55778 4.97917C9.77306 4.96528 9.97792 4.99306 10.1724 5.0625C10.3668 5.13194 10.5508 5.22917 10.7244 5.35417C10.8981 5.47917 11.0404 5.63889 11.1515 5.83333L11.9849 7.16667C12.346 7.75 12.8356 8.22917 13.4536 8.60417C14.0717 8.97917 14.7765 9.16667 15.5682 9.16667V10.8333C14.596 10.8333 13.7279 10.6319 12.964 10.2292C12.2001 9.82639 11.5474 9.3125 11.0057 8.6875L10.4849 11.25L12.2349 12.9167V19.1667H10.5682V13.75L8.8182 12.4167L7.3182 19.1667H5.5682ZM10.9849 4.58333C10.5265 4.58333 10.1342 4.42014 9.80778 4.09375C9.48139 3.76736 9.3182 3.375 9.3182 2.91667C9.3182 2.45833 9.48139 2.06597 9.80778 1.73958C10.1342 1.41319 10.5265 1.25 10.9849 1.25C11.4432 1.25 11.8356 1.41319 12.1619 1.73958C12.4883 2.06597 12.6515 2.45833 12.6515 2.91667C12.6515 3.375 12.4883 3.76736 12.1619 4.09375C11.8356 4.42014 11.4432 4.58333 10.9849 4.58333Z" fill="#151515"/>
</svg>
