<svg width="26" height="26" viewBox="0 0 26 26" fill="none" xmlns="http://www.w3.org/2000/svg">
<circle cx="13" cy="13" r="12.5" fill="white" stroke="#3C3C3C"/>
<g clip-path="url(#clip0_513_3661)">
<path fill-rule="evenodd" clip-rule="evenodd" d="M18.8976 17.4831C18.52 18.6308 17.0403 19.2031 15.9832 19.1077C14.5394 18.9772 12.9684 18.2114 11.7759 17.368C10.023 16.1281 8.38098 14.2103 7.42418 12.1751C6.74798 10.7371 6.59626 8.96901 7.602 7.6582C7.97396 7.17369 8.37609 6.91492 8.98051 6.88474C9.81904 6.84395 9.9365 7.32366 10.2244 8.07083C10.439 8.62957 10.7253 9.19953 10.8851 9.77867C11.1845 10.8595 10.138 10.9046 10.0058 11.788C9.92344 12.3451 10.5988 13.0922 10.9039 13.4895C11.5018 14.2676 12.2204 14.9388 13.0312 15.4494C13.4953 15.7423 14.2449 16.27 14.7768 15.9788C15.5957 15.5301 15.5182 14.1492 16.6635 14.6166C17.2565 14.8581 17.8307 15.2065 18.3968 15.5116C19.272 15.9822 19.2312 16.47 18.8976 17.4831C19.1472 16.7261 18.648 18.24 18.8976 17.4831Z" fill="#3C3C3C"/>
</g>
<defs>
<clipPath id="clip0_513_3661">
<rect width="12.2353" height="12.2353" fill="white" transform="translate(6.88232 6.88232)"/>
</clipPath>
</defs>
</svg>
