<svg width="108" height="100" viewBox="0 0 108 100" fill="none" xmlns="http://www.w3.org/2000/svg">
<ellipse cx="49.8292" cy="49.8292" rx="49.8292" ry="49.8292" fill="white"/>
<path fill-rule="evenodd" clip-rule="evenodd" d="M86.9604 82.9838C77.827 93.4137 64.4124 100 49.4595 100C34.5067 100 21.0923 93.4138 11.9589 82.9842C17.4638 73.3589 38.2622 68.5151 49.4598 68.5151C60.6571 68.5151 81.4551 73.3588 86.9604 82.9838ZM68.8934 39.3651C68.8934 50.1069 60.2018 58.7985 49.46 58.7985C38.7182 58.7985 30.0266 50.1069 30.0266 39.3651C30.0266 28.6233 38.7182 19.9317 49.46 19.9317C60.2018 19.9317 68.8934 28.6233 68.8934 39.3651Z" fill="#B32425"/>
<circle cx="92.6826" cy="23.918" r="14.9488" fill="#B32425"/>
<path fill-rule="evenodd" clip-rule="evenodd" d="M88.6559 30.2913H97.0272C98.1083 30.2891 98.9806 29.4107 98.9806 28.3313V24.1239C98.9806 23.8164 98.73 23.5658 98.4225 23.5658C98.115 23.5658 97.8644 23.8164 97.8644 24.1239V28.3313C97.8666 28.7957 97.4916 29.1729 97.0272 29.1752H88.6559C88.1916 29.1729 87.8166 28.7957 87.8188 28.3313V19.9734C87.8166 19.5091 88.1916 19.1318 88.6559 19.1296H92.8416C93.1491 19.1296 93.3997 18.879 93.3997 18.5715C93.3997 18.264 93.1491 18.0134 92.8416 18.0134H88.6559C87.5744 18.0157 86.7026 18.8941 86.7026 19.9734V28.3313C86.7026 29.4107 87.5744 30.2891 88.6559 30.2913Z" fill="white"/>
<path fill-rule="evenodd" clip-rule="evenodd" d="M93.0341 23.18L96.814 19.3912L97.5942 20.1759L93.8121 23.9669L92.8114 24.1874L93.0341 23.18ZM98.0004 18.2053C98.2202 17.9937 98.5691 17.9937 98.7895 18.2053C99.0055 18.4251 99.0055 18.774 98.7895 18.9944L98.3949 19.389L97.6058 18.5998L98.0004 18.2053ZM91.9791 22.781L91.5387 24.7974C91.4997 24.9849 91.556 25.1791 91.6917 25.3119C91.8267 25.4431 92.0181 25.4995 92.2034 25.4626L94.2181 25.0223C94.3203 24.9983 94.4162 24.9458 94.4927 24.8694L99.5785 19.7835C100.233 19.1295 100.233 18.0702 99.5785 17.4161C98.9161 16.7838 97.8736 16.7838 97.2111 17.4161L92.1337 22.5064C92.0578 22.5829 92.0031 22.6761 91.9791 22.781Z" fill="white"/>
</svg>
