<svg width="24" height="24" viewBox="0 0 24 24" fill="none" xmlns="http://www.w3.org/2000/svg">
<path fill-rule="evenodd" clip-rule="evenodd" d="M2 9.39465C2 5.28966 5.24902 2 9.21042 2C13.1718 2 16.4208 5.28966 16.4208 9.39465C16.4208 13.4996 13.1718 16.7893 9.21042 16.7893C5.24902 16.7893 2 13.4996 2 9.39465ZM9.21042 0C4.10284 0 0 4.22716 0 9.39465C0 14.5621 4.10284 18.7893 9.21042 18.7893C11.3984 18.7893 13.4021 18.0135 14.9778 16.7204L21.3975 23.2843C21.7837 23.6791 22.4168 23.6861 22.8117 23.3C23.2065 22.9138 23.2135 22.2807 22.8274 21.8858L16.3793 15.2931C17.6574 13.6778 18.4208 11.6237 18.4208 9.39465C18.4208 4.22716 14.318 0 9.21042 0Z" fill="#3C3C3C"/>
</svg>
