<svg width="14" height="14" viewBox="0 0 14 14" fill="none" xmlns="http://www.w3.org/2000/svg">
<path d="M12.2807 0.734823L1.16819 4.17796C0.962343 4.2326 0.779639 4.35224 0.64727 4.51909C0.5149 4.68593 0.439942 4.89106 0.433551 5.10394C0.42716 5.31682 0.489677 5.52608 0.611798 5.70057C0.733919 5.87505 0.909117 6.00544 1.11132 6.07234L6.15133 7.76109C6.1697 7.76807 6.1865 7.77863 6.20077 7.79214C6.21504 7.80566 6.22649 7.82187 6.23445 7.83984L8.08946 12.6523C8.16452 12.8457 8.29701 13.0114 8.46909 13.1271C8.64118 13.2429 8.84459 13.3032 9.05196 13.2999H9.07821C9.28907 13.2992 9.49434 13.232 9.6648 13.1079C9.83526 12.9838 9.96221 12.8091 10.0276 12.6086L13.5626 1.99483C13.618 1.82489 13.6261 1.64307 13.586 1.46888C13.546 1.29469 13.4592 1.1347 13.3351 1.00607C13.2024 0.866701 13.0332 0.767387 12.8468 0.719434C12.6604 0.67148 12.4642 0.676812 12.2807 0.734823Z" fill="#0E70F8"/>
</svg>
