<svg width="15" height="23" viewBox="0 0 15 23" fill="none" xmlns="http://www.w3.org/2000/svg">
<path d="M1.5455 0L0.0121694 8.43333C-0.212311 9.66767 2.7438 10.2442 2.6955 11.5L2.31217 21.4667C2.25329 22.9989 3.8455 23 3.8455 23C3.8455 23 5.43772 22.9989 5.37884 21.4667L4.9955 11.5C4.94736 10.2463 7.65338 9.68944 7.67884 8.43333L6.1455 0H5.37884L5.76217 6.13333L4.61217 6.9L4.22884 0H3.46217L3.07884 6.9L1.92884 6.13333L2.31217 0H1.5455ZM14.5788 0C13.4497 0 11.5671 1.00418 10.8144 2.50961C10.1871 3.63875 9.97884 6.16124 9.97884 7.66667V11.5C9.97884 12.7546 11.6515 13.0333 12.2788 13.0333L11.5122 21.4667C11.3734 22.9937 13.0455 23 13.0455 23C13.0455 23 14.5788 23 14.5788 21.4667V0Z" fill="#1C1D17"/>
</svg>
