<svg width="24" height="24" viewBox="0 0 24 24" fill="none" xmlns="http://www.w3.org/2000/svg">
<path d="M23.198 14.4047C22.3706 15.5138 21.8166 16.8323 21.5948 18.217C21.4584 19.0683 21.0633 19.8412 20.452 20.4525C19.8412 21.0633 19.0683 21.4584 18.217 21.5948C16.8323 21.8166 15.5137 22.3706 14.4047 23.198C13.7011 23.7225 12.8695 24 12 24C11.1305 24 10.2989 23.7225 9.59531 23.198C8.48625 22.3706 7.16766 21.8166 5.78297 21.5948C4.93172 21.4584 4.15875 21.0633 3.5475 20.452C2.93672 19.8412 2.54156 19.0683 2.40516 18.217C2.18344 16.8323 1.62937 15.5138 0.802031 14.4047C0.2775 13.7011 0 12.8695 0 12C0 11.1305 0.2775 10.2989 0.802031 9.59531C1.62937 8.48625 2.18344 7.16766 2.40516 5.78297C2.54156 4.93172 2.93672 4.15922 3.54797 3.5475C4.15922 2.93672 4.93172 2.54156 5.78297 2.40516C7.16766 2.18344 8.48625 1.62937 9.59531 0.802031C10.2989 0.2775 11.1305 0 12 0C12.8695 0 13.7011 0.2775 14.4047 0.802031C15.5137 1.62937 16.8323 2.18344 18.217 2.40516C19.0683 2.54156 19.8412 2.93672 20.4525 3.54797C21.0633 4.15875 21.4584 4.93172 21.5948 5.78297C21.7059 6.47531 21.8995 7.15125 22.1691 7.7925C22.4391 8.43375 22.7841 9.04078 23.198 9.59531C23.7225 10.2989 24 11.1305 24 12C24 12.8695 23.7225 13.7011 23.198 14.4047Z" fill="#FFF239"/>
<path d="M24 12C24 11.1305 23.7225 10.2989 23.198 9.59531C22.7841 9.04078 22.4391 8.43375 22.1691 7.7925C21.8995 7.15125 21.7059 6.47531 21.5948 5.78297C21.4584 4.93172 21.0633 4.15875 20.4525 3.54797C19.8413 2.93672 19.0683 2.54156 18.217 2.40516C16.8323 2.18344 15.5137 1.62937 14.4047 0.802031C13.7011 0.2775 12.8695 0 12 0V24C12.8695 24 13.7011 23.7225 14.4047 23.198C15.5137 22.3706 16.8323 21.8166 18.217 21.5948C19.0683 21.4584 19.8412 21.0633 20.452 20.4525C21.0633 19.8412 21.4584 19.0683 21.5948 18.217C21.8166 16.8323 22.3706 15.5138 23.198 14.4047C23.7225 13.7011 24 12.8695 24 12Z" fill="#FFD600"/>
<path d="M12 20.5781C7.26984 20.5781 3.42188 16.7302 3.42188 12C3.42188 7.26984 7.26984 3.42188 12 3.42188C16.7302 3.42188 20.5781 7.26984 20.5781 12C20.5781 16.7302 16.7302 20.5781 12 20.5781Z" fill="#FFD600"/>
<path d="M20.5781 12C20.5781 7.26984 16.7302 3.42188 12 3.42188V20.5781C16.7302 20.5781 20.5781 16.7302 20.5781 12Z" fill="#FFB229"/>
<path d="M16.7874 13.7362C16.6875 14.0161 16.4222 14.2031 16.125 14.2031H13.5835L12.661 16.7405C12.5597 17.018 12.2958 17.2031 12 17.2031C11.7043 17.2031 11.4404 17.018 11.3391 16.7405L10.4166 14.2031H7.87504C7.57785 14.2031 7.31254 14.0161 7.2127 13.7362C7.11285 13.4564 7.19957 13.1442 7.42973 12.9558L9.38207 11.3583L8.3391 8.49047C8.23691 8.20828 8.32457 7.89234 8.55754 7.70344C8.79098 7.51453 9.11816 7.49484 9.3727 7.65375L12 9.29578L14.6274 7.65375C14.7418 7.58203 14.8711 7.54687 15 7.54687C15.1575 7.54687 15.3141 7.59984 15.4425 7.70344C15.6755 7.89234 15.7632 8.20828 15.661 8.49047L14.618 11.3583L16.5704 12.9558C16.8005 13.1442 16.8872 13.4564 16.7874 13.7362Z" fill="#FFF239"/>
<path d="M16.5703 12.9558L14.618 11.3583L15.6609 8.49047C15.7631 8.20828 15.6755 7.89234 15.4425 7.70344C15.3141 7.59984 15.1575 7.54688 15 7.54688C14.8711 7.54688 14.7417 7.58203 14.6273 7.65375L12 9.29578V17.2031C12.2958 17.2031 12.5597 17.018 12.6609 16.7405L13.5834 14.2031H16.125C16.4222 14.2031 16.6875 14.0161 16.7873 13.7362C16.8872 13.4564 16.8005 13.1442 16.5703 12.9558Z" fill="#FFD600"/>
</svg>
