<svg width="22" height="22" viewBox="0 0 22 22" fill="none" xmlns="http://www.w3.org/2000/svg">
<path d="M18.0261 11.7315C18.0789 11.8941 18.0852 12.0682 18.0442 12.2343C18.0032 12.4003 17.9167 12.5515 17.7943 12.6709L15.0622 15.3341L15.7068 19.0948C15.7356 19.2634 15.7168 19.4367 15.6523 19.5951C15.5878 19.7535 15.4803 19.8907 15.3419 19.9913C15.2035 20.0918 15.0398 20.1516 14.8692 20.164C14.6986 20.1763 14.5279 20.1407 14.3765 20.0611L10.9999 18.2855L7.6228 20.0611C7.47139 20.1407 7.30074 20.1763 7.13014 20.164C6.95954 20.1516 6.79579 20.0918 6.6574 19.9913C6.51902 19.8907 6.41151 19.7535 6.34703 19.5951C6.28255 19.4367 6.26368 19.2634 6.29254 19.0948L6.93759 15.3341L4.20593 12.6714C4.08338 12.552 3.99667 12.4008 3.9556 12.2347C3.91454 12.0686 3.92077 11.8944 3.97358 11.7317C4.02639 11.569 4.12367 11.4243 4.25443 11.3139C4.38519 11.2036 4.5442 11.1321 4.71349 11.1075L8.48933 10.5588L10.1776 7.13739C10.2534 6.98396 10.3705 6.85478 10.5158 6.76445C10.6611 6.67413 10.8288 6.62625 10.9999 6.62625C11.171 6.62625 11.3387 6.67413 11.484 6.76445C11.6293 6.85478 11.7464 6.98396 11.8221 7.13739L13.51 10.5588L17.2858 11.1075C17.4551 11.1321 17.6142 11.2036 17.745 11.3139C17.8758 11.4241 17.9732 11.5688 18.0261 11.7315ZM10.9999 5.49967C11.243 5.49965 11.4761 5.40306 11.648 5.23116C11.8199 5.05926 11.9165 4.82612 11.9166 4.58301V2.74967C11.9166 2.50656 11.82 2.2734 11.6481 2.10149C11.4762 1.92958 11.243 1.83301 10.9999 1.83301C10.7568 1.83301 10.5236 1.92958 10.3517 2.10149C10.1798 2.2734 10.0832 2.50656 10.0832 2.74967V4.58301C10.0833 4.82612 10.1798 5.05926 10.3517 5.23116C10.5236 5.40306 10.7568 5.49965 10.9999 5.49967ZM5.49989 6.41634C5.68117 6.4163 5.85837 6.36251 6.00909 6.26177C6.1598 6.16104 6.27727 6.01788 6.34663 5.8504C6.41599 5.68291 6.43414 5.49862 6.39878 5.32082C6.36343 5.14302 6.27614 4.9797 6.14798 4.8515L4.31464 3.01817C4.14275 2.84628 3.90962 2.74973 3.66653 2.74973C3.42344 2.74974 3.19031 2.84632 3.01843 3.01821C2.84655 3.19011 2.74999 3.42324 2.75 3.66633C2.75001 3.90941 2.84658 4.14254 3.01848 4.31442L4.85181 6.14776C4.93681 6.23302 5.03783 6.30064 5.14905 6.34673C5.26027 6.39283 5.3795 6.41648 5.49989 6.41634ZM18.9813 3.01817C18.8962 2.93303 18.7952 2.8655 18.684 2.81942C18.5728 2.77335 18.4536 2.74963 18.3332 2.74963C18.2129 2.74963 18.0937 2.77335 17.9825 2.81942C17.8713 2.8655 17.7702 2.93303 17.6851 3.01817L15.8518 4.8515C15.7667 4.93661 15.6992 5.03765 15.6531 5.14885C15.607 5.26005 15.5833 5.37923 15.5833 5.4996C15.5833 5.61996 15.607 5.73915 15.6531 5.85035C15.6991 5.96156 15.7667 6.0626 15.8518 6.14771C15.9369 6.23283 16.0379 6.30034 16.1491 6.34641C16.2603 6.39247 16.3795 6.41619 16.4999 6.41619C16.6202 6.41619 16.7394 6.39249 16.8506 6.34643C16.9618 6.30038 17.0629 6.23287 17.148 6.14776L18.9813 4.31442C19.0665 4.22933 19.134 4.1283 19.1801 4.01709C19.2262 3.90588 19.2499 3.78668 19.2499 3.6663C19.2499 3.54591 19.2262 3.42671 19.1801 3.3155C19.134 3.20429 19.0665 3.10326 18.9813 3.01817Z" fill="url(#paint0_linear_513_3970)"/>
<defs>
<linearGradient id="paint0_linear_513_3970" x1="-12.2222" y1="3.66634" x2="19.2499" y2="10.9997" gradientUnits="userSpaceOnUse">
<stop offset="0.00503" stop-color="#F15A29"/>
<stop offset="1" stop-color="#FFDE17"/>
</linearGradient>
</defs>
</svg>
