<svg width="12" height="12" viewBox="0 0 12 12" fill="none" xmlns="http://www.w3.org/2000/svg">
<g clip-path="url(#clip0_513_3113)">
<path d="M11.9689 4.36889C11.9306 4.24997 11.8581 4.14498 11.7604 4.067C11.6628 3.98902 11.5444 3.94149 11.4199 3.93036L7.95629 3.61583L6.5867 0.410141C6.48568 0.175216 6.2557 0.0231934 6.00018 0.0231934C5.74465 0.0231934 5.51465 0.175239 5.41367 0.410727L4.04406 3.61586L0.579912 3.93036C0.455597 3.94174 0.337358 3.98937 0.239855 4.06732C0.142352 4.14528 0.0698721 4.25013 0.0314023 4.36889C-0.0476092 4.6119 0.0253551 4.87842 0.217903 5.04643L2.83599 7.34247L2.06397 10.7432C2.00748 10.9932 2.10452 11.2517 2.312 11.4017C2.4235 11.4822 2.55398 11.5233 2.68554 11.5233C2.79898 11.5233 2.91149 11.4927 3.01251 11.4322L6.00018 9.6466L8.98676 11.4322C9.20531 11.5637 9.4808 11.5517 9.68781 11.4017C9.78916 11.3283 9.8667 11.2268 9.9108 11.1097C9.9549 10.9926 9.9636 10.8652 9.93584 10.7432L9.16384 7.34247L11.7819 5.0469C11.8761 4.96464 11.944 4.85653 11.9773 4.73599C12.0105 4.61545 12.0076 4.4878 11.9689 4.36889Z" fill="#FFC107"/>
</g>
<defs>
<clipPath id="clip0_513_3113">
<rect width="12.0002" height="12.0002" fill="white"/>
</clipPath>
</defs>
</svg>
