<svg width="84" height="81" viewBox="0 0 84 81" fill="none" xmlns="http://www.w3.org/2000/svg">
<path d="M80.3668 47.4509L80.3417 47.4633C77.3939 49.724 76.1449 53.571 77.1942 57.1309L77.2066 57.1559C78.8802 62.8141 74.7336 68.522 68.8379 68.672H68.813C65.0908 68.772 61.8183 71.145 60.5817 74.6549V74.6674C58.6081 80.238 51.8885 82.4238 47.0297 79.0638C44.0126 77.0036 40.0242 76.8961 36.8499 79.0638H36.8375C31.9788 82.4112 25.2589 80.2379 23.2979 74.6548C22.0502 71.1361 18.7825 68.7716 15.0667 68.6719H15.0417C9.14632 68.5219 4.99934 62.814 6.67315 57.1558L6.68558 57.1307C7.73454 53.5708 6.48553 49.7238 3.53801 47.4631L3.51298 47.4507C-1.17099 43.8533 -1.17099 36.8089 3.51298 33.2117L3.53801 33.1992C6.48553 30.9385 7.73454 27.0914 6.67315 23.5316V23.5066C4.98674 17.8486 9.14615 12.1403 15.0417 11.9905H15.0667C18.7763 11.8905 22.0613 9.51732 23.2979 6.00761V5.99518C25.2587 0.424496 31.9788 -1.76128 36.8375 1.59877H36.8499C39.91 3.70963 43.9568 3.70963 47.0297 1.59877C51.9374 -1.79034 58.6197 0.457922 60.5817 5.99518V6.00761C61.8183 9.50489 65.0907 11.8907 68.813 11.9905H68.8379C74.7334 12.1403 78.8802 17.8486 77.2066 23.5066L77.1942 23.5316C76.1449 27.0914 77.3939 30.9385 80.3417 33.1992L80.3668 33.2117C85.0507 36.8089 85.0507 43.8535 80.3668 47.4509Z" fill="#3EB655"/>
<path d="M41.9399 63.5948C54.7896 63.5948 65.2064 53.178 65.2064 40.3283C65.2064 27.4785 54.7896 17.0618 41.9399 17.0618C29.0901 17.0618 18.6733 27.4785 18.6733 40.3283C18.6733 53.178 29.0901 63.5948 41.9399 63.5948Z" fill="#8BD399"/>
<path opacity="0.1" d="M59.8044 25.435C55.78 22.1244 50.6313 20.1344 45.0185 20.1344C32.1688 20.1344 21.7464 30.5569 21.7464 43.4065C21.7464 49.0194 23.7363 54.1681 27.0468 58.1925C21.9337 53.9272 18.6768 47.5113 18.6768 40.328C18.6768 27.4782 29.0903 17.0648 41.9399 17.0648C49.1233 17.0648 55.5392 20.3217 59.8044 25.435Z" fill="black"/>
<path d="M36.4048 49.4366L31.2598 43.9629C29.9123 42.5291 29.9819 40.2748 31.4151 38.9273C32.8484 37.5782 35.1037 37.6506 36.45 39.0834L38.906 41.6953L49.3458 29.7631C50.6398 28.2823 52.8906 28.1322 54.3726 29.428C55.8534 30.7239 56.0029 32.974 54.7077 34.4548L41.6809 49.3427C40.2931 50.9272 37.844 50.9687 36.4048 49.4366Z" fill="white"/>
</svg>
