<svg width="32" height="32" viewBox="0 0 32 32" fill="none" xmlns="http://www.w3.org/2000/svg">
<path d="M13.7592 9.79976L15.9998 8.87082L18.2404 9.79976C18.5406 9.9237 18.8853 9.88451 19.1504 9.69226C19.4141 9.50032 19.5591 9.1847 19.5335 8.85963L19.3429 6.4417L20.9185 4.59701C21.1304 4.34945 21.1979 4.00876 21.0973 3.6987C20.9966 3.38801 20.7416 3.15232 20.4241 3.0767L18.066 2.51032L16.7991 0.44182C16.4619 -0.147305 15.5376 -0.147242 15.2004 0.44182L13.9335 2.51032L11.5754 3.0767C11.2579 3.15232 11.0029 3.38801 10.9023 3.6987C10.8016 4.00876 10.8691 4.34945 11.081 4.59701L12.6566 6.4417L12.466 8.85963C12.4404 9.1847 12.5854 9.50038 12.8491 9.69226C13.1136 9.88351 13.458 9.92476 13.7592 9.79976Z" fill="#B32425"/>
<path d="M31.9542 7.38681C31.8536 7.07612 31.5986 6.84044 31.2811 6.76481L28.923 6.19844L27.6561 4.12994C27.4855 3.85175 27.183 3.68237 26.8567 3.68237C26.5305 3.68237 26.228 3.85181 26.0573 4.12994L24.7905 6.19844L22.4323 6.76481C22.1148 6.84044 21.8598 7.07612 21.7592 7.38681C21.6586 7.69687 21.7261 8.03756 21.938 8.28512L23.5136 10.1298L23.323 12.5477C23.2973 12.8728 23.4423 13.1885 23.7061 13.3804C23.9705 13.5717 24.3148 13.6129 24.6161 13.4879L26.8567 12.5589L29.0973 13.4879C29.3975 13.6118 29.7423 13.5726 30.0073 13.3804C30.2711 13.1884 30.4161 12.8728 30.3905 12.5477L30.1998 10.1298L31.7755 8.28512C31.9873 8.03756 32.0548 7.69687 31.9542 7.38681Z" fill="#B32425"/>
<path d="M7.7427 13.5592C7.9377 13.5592 8.13083 13.4986 8.29395 13.3805C8.5577 13.1886 8.7027 12.8729 8.67708 12.5479L8.48645 10.1299L10.0621 8.28525C10.274 8.03768 10.3415 7.697 10.2408 7.38693C10.1402 7.07625 9.8852 6.84056 9.5677 6.76493L7.20958 6.19856L5.9427 4.13006C5.77208 3.85187 5.46958 3.6825 5.14333 3.6825C4.81708 3.6825 4.51458 3.85193 4.34395 4.13006L3.07708 6.19856L0.718952 6.76493C0.401452 6.84056 0.146452 7.07625 0.0458266 7.38693C-0.0547984 7.697 0.0127016 8.03768 0.224577 8.28525L1.8002 10.1299L1.60958 12.5479C1.58395 12.8729 1.72895 13.1886 1.9927 13.3805C2.25708 13.5718 2.60145 13.6131 2.9027 13.488L5.14333 12.5591L7.38395 13.488C7.49958 13.5355 7.62145 13.5592 7.7427 13.5592Z" fill="#B32425"/>
<path d="M27.0362 22.5513L25.9269 28.9094C25.6481 30.5013 24.2662 31.6625 22.6506 31.6625H16.2525C15.8056 31.6625 15.3675 31.5732 14.9619 31.4063C14.5562 31.2375 14.1831 30.9913 13.8675 30.675C13.8481 30.6557 13.8281 30.6363 13.8081 30.6169V20.0557L13.8506 20.0407C14.7525 19.7169 15.4556 18.9944 15.7531 18.0832L16.3125 16.2932L17.0662 13.8813C17.2881 13.2032 18.0169 12.8338 18.6956 13.0557C19.9381 13.4607 20.7281 14.6157 20.7281 15.855C20.7281 16.1588 20.6806 16.4675 20.5806 16.7713L19.7406 19.5275H24.495C26.0975 19.5275 27.3125 20.9732 27.0362 22.5513Z" fill="#B32425"/>
<path d="M11.0013 32H6.66162C6.1468 32 5.72949 31.5827 5.72949 31.0679V19.8289C5.72949 19.314 6.1468 18.8967 6.66162 18.8967H11.0013C11.5161 18.8967 11.9334 19.314 11.9334 19.8289V31.0679C11.9334 31.5827 11.5161 32 11.0013 32Z" fill="#B32425"/>
</svg>
