<svg width="24" height="23" viewBox="0 0 24 23" fill="none" xmlns="http://www.w3.org/2000/svg">
<path d="M17.5471 0H6.45286C2.89477 0 0 2.89477 0 6.45291V12.1161C0 13.4327 0.394219 14.6994 1.14 15.7792C1.77563 16.6994 2.62734 17.4312 3.62269 17.9166V21.658C3.62269 21.93 3.77953 22.1775 4.02544 22.2937C4.1212 22.3389 4.22372 22.3611 4.32572 22.3611C4.48556 22.3611 4.644 22.3066 4.77225 22.2012L9.1912 18.5689H17.5471C21.1052 18.5689 24 15.6742 24 12.116V6.45291C24 2.89477 21.1052 0 17.5471 0ZM4.26562 9.91392C4.26562 10.3022 3.95081 10.617 3.5625 10.617C3.17419 10.617 2.85938 10.3022 2.85938 9.91392V9.02381C2.85938 8.6355 3.17419 8.32069 3.5625 8.32069C3.95081 8.32069 4.26562 8.6355 4.26562 9.02381V9.91392ZM7.07812 11.5545C7.07812 11.9429 6.76331 12.2577 6.375 12.2577C5.98669 12.2577 5.67188 11.9429 5.67188 11.5545V7.38319C5.67188 6.99487 5.98669 6.68006 6.375 6.68006C6.76331 6.68006 7.07812 6.99487 7.07812 7.38319V11.5545ZM9.89062 10.3827C9.89062 10.771 9.57581 11.0858 9.1875 11.0858C8.79919 11.0858 8.48438 10.771 8.48438 10.3827V8.55506C8.48438 8.16675 8.79919 7.85194 9.1875 7.85194C9.57581 7.85194 9.89062 8.16675 9.89062 8.55506V10.3827ZM12.7031 12.7264C12.7031 13.1147 12.3883 13.4295 12 13.4295C11.6117 13.4295 11.2969 13.1147 11.2969 12.7264V6.21131C11.2969 5.823 11.6117 5.50819 12 5.50819C12.3883 5.50819 12.7031 5.823 12.7031 6.21131V12.7264ZM15.5156 9.91392C15.5156 10.3022 15.2008 10.617 14.8125 10.617C14.4242 10.617 14.1094 10.3022 14.1094 9.91392V9.02381C14.1094 8.6355 14.4242 8.32069 14.8125 8.32069C15.2008 8.32069 15.5156 8.6355 15.5156 9.02381V9.91392ZM18.3281 10.8514C18.3281 11.2397 18.0133 11.5545 17.625 11.5545C17.2367 11.5545 16.9219 11.2397 16.9219 10.8514V8.08631C16.9219 7.698 17.2367 7.38319 17.625 7.38319C18.0133 7.38319 18.3281 7.698 18.3281 8.08631V10.8514ZM21.1406 10.3827C21.1406 10.771 20.8258 11.0858 20.4375 11.0858C20.0492 11.0858 19.7344 10.771 19.7344 10.3827V8.55506C19.7344 8.16675 20.0492 7.85194 20.4375 7.85194C20.8258 7.85194 21.1406 8.16675 21.1406 8.55506V10.3827Z" fill="#B32425"/>
</svg>
